<svg width="232" height="232" viewBox="0 0 232 232" fill="none" xmlns="http://www.w3.org/2000/svg">
<path d="M23.2102 207.84C35.3902 207.84 42.2502 201.33 42.2502 191.95C42.2502 183.55 37.4202 179.07 27.4102 177.46L22.5802 176.69C18.5202 176.06 16.7702 174.8 16.7702 171.44C16.7702 168.5 19.0802 166.68 23.8402 166.68C28.8802 166.68 32.0302 168.57 34.3402 171.3L41.4102 164.16C37.4202 159.75 31.8202 157.3 24.4702 157.3C12.9902 157.3 6.13016 163.39 6.13016 172.14C6.13016 180.33 10.8202 185.37 21.1102 186.7L25.9402 187.33C30.4902 187.96 31.6102 189.92 31.6102 192.58C31.6102 196.15 29.0902 198.46 23.9102 198.46C19.1502 198.46 14.9502 196.57 11.6602 192.86L4.66016 199.93C8.86016 204.55 14.6702 207.84 23.2102 207.84Z" fill="white"/>
<path d="M69.7213 207L75.8813 180.54L78.3313 169.83H78.5413L80.9213 180.54L87.0813 207H99.1913L110.531 158.14H100.451L95.7613 181.59L93.1713 195.17H92.9613L89.9513 181.59L84.4913 158.14H72.8713L67.4813 181.59L64.4013 195.17H64.1913L61.6013 181.59L56.9813 158.14H46.4813L57.5413 207H69.7213Z" fill="white"/>
<path d="M139.277 207V198.53H132.977V166.61H139.277V158.14H116.037V166.61H122.337V198.53H116.037V207H139.277Z" fill="white"/>
<path d="M158.782 207V189.36H171.242C180.342 189.36 186.082 182.99 186.082 173.75C186.082 164.51 180.342 158.14 171.242 158.14H148.142V207H158.782ZM158.782 167.38H169.982C173.132 167.38 175.092 169.06 175.092 172.21V175.29C175.092 178.44 173.132 180.12 169.982 180.12H158.782V167.38Z" fill="white"/>
<path d="M227.33 207V197.55H204.72V186.98H224.11V177.6H204.72V167.59H227.33V158.14H194.08V207H227.33Z" fill="white"/>
<path fill-rule="evenodd" clip-rule="evenodd" d="M27.5682 176.472C32.6718 177.293 36.6111 178.867 39.2773 181.439C41.9744 184.04 43.2494 187.544 43.2494 191.95C43.2494 196.899 41.4311 201.159 37.9511 204.169C34.4857 207.166 29.4707 208.84 23.2094 208.84C14.3669 208.84 8.29458 205.415 3.91947 200.602L3.28125 199.9L11.6996 191.398L12.4076 192.196C15.5123 195.697 19.4422 197.46 23.9094 197.46C26.3684 197.46 28.0394 196.909 29.0766 196.078C30.0816 195.273 30.6094 194.11 30.6094 192.58C30.6094 191.384 30.3585 190.522 29.7527 189.879C29.1276 189.215 27.9732 188.621 25.8061 188.321L20.9812 187.692C15.7099 187.01 11.7247 185.361 9.05481 182.701C6.36553 180.021 5.12941 176.434 5.12941 172.14C5.12941 167.483 6.96494 163.485 10.3555 160.669C13.7289 157.867 18.5603 156.3 24.4694 156.3C32.063 156.3 37.9467 158.842 42.1509 163.489L42.786 164.191L34.2815 172.78L33.576 171.946C31.4457 169.428 28.5696 167.68 23.8394 167.68C21.5629 167.68 20.0302 168.119 19.0937 168.776C18.2091 169.397 17.7694 170.269 17.7694 171.44C17.7694 172.935 18.1498 173.767 18.8044 174.331C19.5259 174.952 20.7388 175.392 22.7327 175.702L22.7368 175.702L27.5682 176.472ZM21.1094 186.7L25.9394 187.33C30.4894 187.96 31.6094 189.92 31.6094 192.58C31.6094 196.15 29.0894 198.46 23.9094 198.46C19.4729 198.46 15.5229 196.818 12.3427 193.591C12.1108 193.356 11.883 193.112 11.6594 192.86L4.65941 199.93C8.85941 204.55 14.6694 207.84 23.2094 207.84C35.3894 207.84 42.2494 201.33 42.2494 191.95C42.2494 183.55 37.4194 179.07 27.4094 177.46L22.5794 176.69C18.5194 176.06 16.7694 174.8 16.7694 171.44C16.7694 168.5 19.0794 166.68 23.8394 166.68C28.4079 166.68 31.4235 168.233 33.6681 170.556C33.8998 170.796 34.1233 171.044 34.3394 171.3L41.4094 164.16C37.4194 159.75 31.8194 157.3 24.4694 157.3C12.9894 157.3 6.12941 163.39 6.12941 172.14C6.12941 180.33 10.8194 185.37 21.1094 186.7ZM70.5145 208H56.7416L45.2289 157.14H57.8028L62.5829 181.402L64.3711 190.779L66.506 181.366L72.0744 157.14H85.2845L90.9269 181.373L93 190.727L94.78 181.394L99.6308 157.14H111.789L99.9851 208H86.2866L79.9444 180.757L78.423 173.91L76.8545 180.767L70.5145 208ZM78.3306 169.83H78.5406L80.9206 180.54L87.0806 207H99.1906L110.531 158.14H100.451L95.7606 181.59L93.1706 195.17H92.9606L89.9506 181.59L84.4906 158.14H72.8706L67.4806 181.59L64.4006 195.17H64.1906L61.6006 181.59L56.9806 158.14H46.4806L57.5406 207H69.7206L75.8806 180.54L78.3306 169.83ZM140.277 208H115.037V197.53H121.337V167.61H115.037V157.14H140.277V167.61H133.977V197.53H140.277V208ZM116.037 198.53H122.337V166.61H116.037V158.14H139.277V166.61H132.977V198.53H139.277V207H116.037V198.53ZM159.781 208H147.141V157.14H171.241C176.036 157.14 180.021 158.824 182.804 161.796C185.58 164.761 187.081 168.923 187.081 173.75C187.081 178.576 185.58 182.739 182.804 185.703C180.021 188.675 176.036 190.36 171.241 190.36H159.781V208ZM158.781 207H148.141V158.14H171.241C180.341 158.14 186.081 164.51 186.081 173.75C186.081 182.99 180.341 189.36 171.241 189.36H158.781V207ZM228.329 208H193.079V157.14H228.329V168.59H205.719V176.6H225.109V187.98H205.719V196.55H228.329V208ZM227.329 197.55V207H194.079V158.14H227.329V167.59H204.719V177.6H224.109V186.98H204.719V197.55H227.329ZM169.981 168.38H159.781V179.12H169.981C171.387 179.12 172.394 178.746 173.04 178.15C173.674 177.567 174.091 176.651 174.091 175.29V172.21C174.091 170.848 173.674 169.933 173.04 169.349C172.394 168.754 171.387 168.38 169.981 168.38ZM169.981 167.38C173.131 167.38 175.091 169.06 175.091 172.21V175.29C175.091 178.44 173.131 180.12 169.981 180.12H158.781V167.38H169.981Z" fill="black"/>
<path d="M23.2102 214.84C35.3902 214.84 42.2502 208.33 42.2502 198.95C42.2502 190.55 37.4202 186.07 27.4102 184.46L22.5802 183.69C18.5202 183.06 16.7702 181.8 16.7702 178.44C16.7702 175.5 19.0802 173.68 23.8402 173.68C28.8802 173.68 32.0302 175.57 34.3402 178.3L41.4102 171.16C37.4202 166.75 31.8202 164.3 24.4702 164.3C12.9902 164.3 6.13016 170.39 6.13016 179.14C6.13016 187.33 10.8202 192.37 21.1102 193.7L25.9402 194.33C30.4902 194.96 31.6102 196.92 31.6102 199.58C31.6102 203.15 29.0902 205.46 23.9102 205.46C19.1502 205.46 14.9502 203.57 11.6602 199.86L4.66016 206.93C8.86016 211.55 14.6702 214.84 23.2102 214.84Z" fill="white"/>
<path d="M69.7213 214L75.8813 187.54L78.3313 176.83H78.5413L80.9213 187.54L87.0813 214H99.1913L110.531 165.14H100.451L95.7613 188.59L93.1713 202.17H92.9613L89.9513 188.59L84.4913 165.14H72.8713L67.4813 188.59L64.4013 202.17H64.1913L61.6013 188.59L56.9813 165.14H46.4813L57.5413 214H69.7213Z" fill="white"/>
<path d="M139.277 214V205.53H132.977V173.61H139.277V165.14H116.037V173.61H122.337V205.53H116.037V214H139.277Z" fill="white"/>
<path d="M158.782 214V196.36H171.242C180.342 196.36 186.082 189.99 186.082 180.75C186.082 171.51 180.342 165.14 171.242 165.14H148.142V214H158.782ZM158.782 174.38H169.982C173.132 174.38 175.092 176.06 175.092 179.21V182.29C175.092 185.44 173.132 187.12 169.982 187.12H158.782V174.38Z" fill="white"/>
<path d="M227.33 214V204.55H204.72V193.98H224.11V184.6H204.72V174.59H227.33V165.14H194.08V214H227.33Z" fill="white"/>
<path fill-rule="evenodd" clip-rule="evenodd" d="M27.5682 183.472C32.6718 184.293 36.6111 185.867 39.2773 188.439C41.9744 191.04 43.2494 194.544 43.2494 198.95C43.2494 203.899 41.4311 208.159 37.9511 211.169C34.4857 214.166 29.4707 215.84 23.2094 215.84C14.3669 215.84 8.29458 212.415 3.91947 207.602L3.28125 206.9L11.6996 198.398L12.4076 199.196C15.5123 202.697 19.4422 204.46 23.9094 204.46C26.3684 204.46 28.0394 203.909 29.0766 203.078C30.0816 202.273 30.6094 201.11 30.6094 199.58C30.6094 198.384 30.3585 197.522 29.7527 196.879C29.1276 196.215 27.9732 195.621 25.8061 195.321L20.9812 194.692C15.7099 194.01 11.7247 192.361 9.05481 189.701C6.36553 187.021 5.12941 183.434 5.12941 179.14C5.12941 174.483 6.96494 170.485 10.3555 167.669C13.7289 164.867 18.5603 163.3 24.4694 163.3C32.063 163.3 37.9467 165.842 42.1509 170.489L42.786 171.191L34.2815 179.78L33.576 178.946C31.4457 176.428 28.5696 174.68 23.8394 174.68C21.5629 174.68 20.0302 175.119 19.0937 175.776C18.2091 176.397 17.7694 177.269 17.7694 178.44C17.7694 179.935 18.1498 180.767 18.8044 181.331C19.5259 181.952 20.7388 182.392 22.7327 182.702L22.7368 182.702L27.5682 183.472ZM21.1094 193.7L25.9394 194.33C30.4894 194.96 31.6094 196.92 31.6094 199.58C31.6094 203.15 29.0894 205.46 23.9094 205.46C19.4729 205.46 15.5229 203.818 12.3427 200.591C12.1108 200.356 11.883 200.112 11.6594 199.86L4.65941 206.93C8.85941 211.55 14.6694 214.84 23.2094 214.84C35.3894 214.84 42.2494 208.33 42.2494 198.95C42.2494 190.55 37.4194 186.07 27.4094 184.46L22.5794 183.69C18.5194 183.06 16.7694 181.8 16.7694 178.44C16.7694 175.5 19.0794 173.68 23.8394 173.68C28.4079 173.68 31.4235 175.233 33.6681 177.556C33.8998 177.796 34.1233 178.044 34.3394 178.3L41.4094 171.16C37.4194 166.75 31.8194 164.3 24.4694 164.3C12.9894 164.3 6.12941 170.39 6.12941 179.14C6.12941 187.33 10.8194 192.37 21.1094 193.7ZM70.5145 215H56.7416L45.2289 164.14H57.8028L62.5829 188.402L64.3711 197.779L66.506 188.366L72.0744 164.14H85.2845L90.9269 188.373L93 197.727L94.78 188.394L99.6308 164.14H111.789L99.9851 215H86.2866L79.9444 187.757L78.423 180.91L76.8545 187.767L70.5145 215ZM78.3306 176.83H78.5406L80.9206 187.54L87.0806 214H99.1906L110.531 165.14H100.451L95.7606 188.59L93.1706 202.17H92.9606L89.9506 188.59L84.4906 165.14H72.8706L67.4806 188.59L64.4006 202.17H64.1906L61.6006 188.59L56.9806 165.14H46.4806L57.5406 214H69.7206L75.8806 187.54L78.3306 176.83ZM140.277 215H115.037V204.53H121.337V174.61H115.037V164.14H140.277V174.61H133.977V204.53H140.277V215ZM116.037 205.53H122.337V173.61H116.037V165.14H139.277V173.61H132.977V205.53H139.277V214H116.037V205.53ZM159.781 215H147.141V164.14H171.241C176.036 164.14 180.021 165.824 182.804 168.796C185.58 171.761 187.081 175.923 187.081 180.75C187.081 185.576 185.58 189.739 182.804 192.703C180.021 195.675 176.036 197.36 171.241 197.36H159.781V215ZM158.781 214H148.141V165.14H171.241C180.341 165.14 186.081 171.51 186.081 180.75C186.081 189.99 180.341 196.36 171.241 196.36H158.781V214ZM228.329 215H193.079V164.14H228.329V175.59H205.719V183.6H225.109V194.98H205.719V203.55H228.329V215ZM227.329 204.55V214H194.079V165.14H227.329V174.59H204.719V184.6H224.109V193.98H204.719V204.55H227.329ZM169.981 175.38H159.781V186.12H169.981C171.387 186.12 172.394 185.746 173.04 185.15C173.674 184.567 174.091 183.651 174.091 182.29V179.21C174.091 177.848 173.674 176.933 173.04 176.349C172.394 175.754 171.387 175.38 169.981 175.38ZM169.981 174.38C173.131 174.38 175.091 176.06 175.091 179.21V182.29C175.091 185.44 173.131 187.12 169.981 187.12H158.781V174.38H169.981Z" fill="black"/>
<path d="M23.2102 221.84C35.3902 221.84 42.2502 215.33 42.2502 205.95C42.2502 197.55 37.4202 193.07 27.4102 191.46L22.5802 190.69C18.5202 190.06 16.7702 188.8 16.7702 185.44C16.7702 182.5 19.0802 180.68 23.8402 180.68C28.8802 180.68 32.0302 182.57 34.3402 185.3L41.4102 178.16C37.4202 173.75 31.8202 171.3 24.4702 171.3C12.9902 171.3 6.13016 177.39 6.13016 186.14C6.13016 194.33 10.8202 199.37 21.1102 200.7L25.9402 201.33C30.4902 201.96 31.6102 203.92 31.6102 206.58C31.6102 210.15 29.0902 212.46 23.9102 212.46C19.1502 212.46 14.9502 210.57 11.6602 206.86L4.66016 213.93C8.86016 218.55 14.6702 221.84 23.2102 221.84Z" fill="white"/>
<path d="M69.7213 221L75.8813 194.54L78.3313 183.83H78.5413L80.9213 194.54L87.0813 221H99.1913L110.531 172.14H100.451L95.7613 195.59L93.1713 209.17H92.9613L89.9513 195.59L84.4913 172.14H72.8713L67.4813 195.59L64.4013 209.17H64.1913L61.6013 195.59L56.9813 172.14H46.4813L57.5413 221H69.7213Z" fill="white"/>
<path d="M139.277 221V212.53H132.977V180.61H139.277V172.14H116.037V180.61H122.337V212.53H116.037V221H139.277Z" fill="white"/>
<path d="M158.782 221V203.36H171.242C180.342 203.36 186.082 196.99 186.082 187.75C186.082 178.51 180.342 172.14 171.242 172.14H148.142V221H158.782ZM158.782 181.38H169.982C173.132 181.38 175.092 183.06 175.092 186.21V189.29C175.092 192.44 173.132 194.12 169.982 194.12H158.782V181.38Z" fill="white"/>
<path d="M227.33 221V211.55H204.72V200.98H224.11V191.6H204.72V181.59H227.33V172.14H194.08V221H227.33Z" fill="white"/>
<path fill-rule="evenodd" clip-rule="evenodd" d="M27.5682 190.472C32.6718 191.293 36.6111 192.867 39.2773 195.439C41.9744 198.04 43.2494 201.544 43.2494 205.95C43.2494 210.899 41.4311 215.159 37.9511 218.169C34.4857 221.166 29.4707 222.84 23.2094 222.84C14.3669 222.84 8.29458 219.415 3.91947 214.602L3.28125 213.9L11.6996 205.398L12.4076 206.196C15.5123 209.697 19.4422 211.46 23.9094 211.46C26.3684 211.46 28.0394 210.909 29.0766 210.078C30.0816 209.273 30.6094 208.11 30.6094 206.58C30.6094 205.384 30.3585 204.522 29.7527 203.879C29.1276 203.215 27.9732 202.621 25.8061 202.321L20.9812 201.692C15.7099 201.01 11.7247 199.361 9.05481 196.701C6.36553 194.021 5.12941 190.434 5.12941 186.14C5.12941 181.483 6.96494 177.485 10.3555 174.669C13.7289 171.867 18.5603 170.3 24.4694 170.3C32.063 170.3 37.9467 172.842 42.1509 177.489L42.786 178.191L34.2815 186.78L33.576 185.946C31.4457 183.428 28.5696 181.68 23.8394 181.68C21.5629 181.68 20.0302 182.119 19.0937 182.776C18.2091 183.397 17.7694 184.269 17.7694 185.44C17.7694 186.935 18.1498 187.767 18.8044 188.331C19.5259 188.952 20.7388 189.392 22.7327 189.702L22.7368 189.702L27.5682 190.472ZM21.1094 200.7L25.9394 201.33C30.4894 201.96 31.6094 203.92 31.6094 206.58C31.6094 210.15 29.0894 212.46 23.9094 212.46C19.4729 212.46 15.5229 210.818 12.3427 207.591C12.1108 207.356 11.883 207.112 11.6594 206.86L4.65941 213.93C8.85941 218.55 14.6694 221.84 23.2094 221.84C35.3894 221.84 42.2494 215.33 42.2494 205.95C42.2494 197.55 37.4194 193.07 27.4094 191.46L22.5794 190.69C18.5194 190.06 16.7694 188.8 16.7694 185.44C16.7694 182.5 19.0794 180.68 23.8394 180.68C28.4079 180.68 31.4235 182.233 33.6681 184.556C33.8998 184.796 34.1233 185.044 34.3394 185.3L41.4094 178.16C37.4194 173.75 31.8194 171.3 24.4694 171.3C12.9894 171.3 6.12941 177.39 6.12941 186.14C6.12941 194.33 10.8194 199.37 21.1094 200.7ZM70.5145 222H56.7416L45.2289 171.14H57.8028L62.5829 195.402L64.3711 204.779L66.506 195.366L72.0744 171.14H85.2845L90.9269 195.373L93 204.727L94.78 195.394L99.6308 171.14H111.789L99.9851 222H86.2866L79.9444 194.757L78.423 187.91L76.8545 194.767L70.5145 222ZM78.3306 183.83H78.5406L80.9206 194.54L87.0806 221H99.1906L110.531 172.14H100.451L95.7606 195.59L93.1706 209.17H92.9606L89.9506 195.59L84.4906 172.14H72.8706L67.4806 195.59L64.4006 209.17H64.1906L61.6006 195.59L56.9806 172.14H46.4806L57.5406 221H69.7206L75.8806 194.54L78.3306 183.83ZM140.277 222H115.037V211.53H121.337V181.61H115.037V171.14H140.277V181.61H133.977V211.53H140.277V222ZM116.037 212.53H122.337V180.61H116.037V172.14H139.277V180.61H132.977V212.53H139.277V221H116.037V212.53ZM159.781 222H147.141V171.14H171.241C176.036 171.14 180.021 172.824 182.804 175.796C185.58 178.761 187.081 182.923 187.081 187.75C187.081 192.576 185.58 196.739 182.804 199.703C180.021 202.675 176.036 204.36 171.241 204.36H159.781V222ZM158.781 221H148.141V172.14H171.241C180.341 172.14 186.081 178.51 186.081 187.75C186.081 196.99 180.341 203.36 171.241 203.36H158.781V221ZM228.329 222H193.079V171.14H228.329V182.59H205.719V190.6H225.109V201.98H205.719V210.55H228.329V222ZM227.329 211.55V221H194.079V172.14H227.329V181.59H204.719V191.6H224.109V200.98H204.719V211.55H227.329ZM169.981 182.38H159.781V193.12H169.981C171.387 193.12 172.394 192.746 173.04 192.15C173.674 191.567 174.091 190.651 174.091 189.29V186.21C174.091 184.848 173.674 183.933 173.04 183.349C172.394 182.754 171.387 182.38 169.981 182.38ZM169.981 181.38C173.131 181.38 175.091 183.06 175.091 186.21V189.29C175.091 192.44 173.131 194.12 169.981 194.12H158.781V181.38H169.981Z" fill="black"/>
<path d="M23.2102 228.84C35.3902 228.84 42.2502 222.33 42.2502 212.95C42.2502 204.55 37.4202 200.07 27.4102 198.46L22.5802 197.69C18.5202 197.06 16.7702 195.8 16.7702 192.44C16.7702 189.5 19.0802 187.68 23.8402 187.68C28.8802 187.68 32.0302 189.57 34.3402 192.3L41.4102 185.16C37.4202 180.75 31.8202 178.3 24.4702 178.3C12.9902 178.3 6.13016 184.39 6.13016 193.14C6.13016 201.33 10.8202 206.37 21.1102 207.7L25.9402 208.33C30.4902 208.96 31.6102 210.92 31.6102 213.58C31.6102 217.15 29.0902 219.46 23.9102 219.46C19.1502 219.46 14.9502 217.57 11.6602 213.86L4.66016 220.93C8.86016 225.55 14.6702 228.84 23.2102 228.84Z" fill="white"/>
<path d="M69.7213 228L75.8813 201.54L78.3313 190.83H78.5413L80.9213 201.54L87.0813 228H99.1913L110.531 179.14H100.451L95.7613 202.59L93.1713 216.17H92.9613L89.9513 202.59L84.4913 179.14H72.8713L67.4813 202.59L64.4013 216.17H64.1913L61.6013 202.59L56.9813 179.14H46.4813L57.5413 228H69.7213Z" fill="white"/>
<path d="M139.277 228V219.53H132.977V187.61H139.277V179.14H116.037V187.61H122.337V219.53H116.037V228H139.277Z" fill="white"/>
<path d="M158.782 228V210.36H171.242C180.342 210.36 186.082 203.99 186.082 194.75C186.082 185.51 180.342 179.14 171.242 179.14H148.142V228H158.782ZM158.782 188.38H169.982C173.132 188.38 175.092 190.06 175.092 193.21V196.29C175.092 199.44 173.132 201.12 169.982 201.12H158.782V188.38Z" fill="white"/>
<path d="M227.33 228V218.55H204.72V207.98H224.11V198.6H204.72V188.59H227.33V179.14H194.08V228H227.33Z" fill="white"/>
<path fill-rule="evenodd" clip-rule="evenodd" d="M27.5682 197.472C32.6718 198.293 36.6111 199.867 39.2773 202.439C41.9744 205.04 43.2494 208.544 43.2494 212.95C43.2494 217.899 41.4311 222.159 37.9511 225.169C34.4857 228.166 29.4707 229.84 23.2094 229.84C14.3669 229.84 8.29458 226.415 3.91947 221.602L3.28125 220.9L11.6996 212.398L12.4076 213.196C15.5123 216.697 19.4422 218.46 23.9094 218.46C26.3684 218.46 28.0394 217.909 29.0766 217.078C30.0816 216.273 30.6094 215.11 30.6094 213.58C30.6094 212.384 30.3585 211.522 29.7527 210.879C29.1276 210.215 27.9732 209.621 25.8061 209.321L20.9812 208.692C15.7099 208.01 11.7247 206.361 9.05481 203.701C6.36553 201.021 5.12941 197.434 5.12941 193.14C5.12941 188.483 6.96494 184.485 10.3555 181.669C13.7289 178.867 18.5603 177.3 24.4694 177.3C32.063 177.3 37.9467 179.842 42.1509 184.489L42.786 185.191L34.2815 193.78L33.576 192.946C31.4457 190.428 28.5696 188.68 23.8394 188.68C21.5629 188.68 20.0302 189.119 19.0937 189.776C18.2091 190.397 17.7694 191.269 17.7694 192.44C17.7694 193.935 18.1498 194.767 18.8044 195.331C19.5259 195.952 20.7388 196.392 22.7327 196.702L22.7368 196.702L27.5682 197.472ZM21.1094 207.7L25.9394 208.33C30.4894 208.96 31.6094 210.92 31.6094 213.58C31.6094 217.15 29.0894 219.46 23.9094 219.46C19.4729 219.46 15.5229 217.818 12.3427 214.591C12.1108 214.356 11.883 214.112 11.6594 213.86L4.65941 220.93C8.85941 225.55 14.6694 228.84 23.2094 228.84C35.3894 228.84 42.2494 222.33 42.2494 212.95C42.2494 204.55 37.4194 200.07 27.4094 198.46L22.5794 197.69C18.5194 197.06 16.7694 195.8 16.7694 192.44C16.7694 189.5 19.0794 187.68 23.8394 187.68C28.4079 187.68 31.4235 189.233 33.6681 191.556C33.8998 191.796 34.1233 192.044 34.3394 192.3L41.4094 185.16C37.4194 180.75 31.8194 178.3 24.4694 178.3C12.9894 178.3 6.12941 184.39 6.12941 193.14C6.12941 201.33 10.8194 206.37 21.1094 207.7ZM70.5145 229H56.7416L45.2289 178.14H57.8028L62.5829 202.402L64.3711 211.779L66.506 202.366L72.0744 178.14H85.2845L90.9269 202.373L93 211.727L94.78 202.394L99.6308 178.14H111.789L99.9851 229H86.2866L79.9444 201.757L78.423 194.91L76.8545 201.767L70.5145 229ZM78.3306 190.83H78.5406L80.9206 201.54L87.0806 228H99.1906L110.531 179.14H100.451L95.7606 202.59L93.1706 216.17H92.9606L89.9506 202.59L84.4906 179.14H72.8706L67.4806 202.59L64.4006 216.17H64.1906L61.6006 202.59L56.9806 179.14H46.4806L57.5406 228H69.7206L75.8806 201.54L78.3306 190.83ZM140.277 229H115.037V218.53H121.337V188.61H115.037V178.14H140.277V188.61H133.977V218.53H140.277V229ZM116.037 219.53H122.337V187.61H116.037V179.14H139.277V187.61H132.977V219.53H139.277V228H116.037V219.53ZM159.781 229H147.141V178.14H171.241C176.036 178.14 180.021 179.824 182.804 182.796C185.58 185.761 187.081 189.923 187.081 194.75C187.081 199.576 185.58 203.739 182.804 206.703C180.021 209.675 176.036 211.36 171.241 211.36H159.781V229ZM158.781 228H148.141V179.14H171.241C180.341 179.14 186.081 185.51 186.081 194.75C186.081 203.99 180.341 210.36 171.241 210.36H158.781V228ZM228.329 229H193.079V178.14H228.329V189.59H205.719V197.6H225.109V208.98H205.719V217.55H228.329V229ZM227.329 218.55V228H194.079V179.14H227.329V188.59H204.719V198.6H224.109V207.98H204.719V218.55H227.329ZM169.981 189.38H159.781V200.12H169.981C171.387 200.12 172.394 199.746 173.04 199.15C173.674 198.567 174.091 197.651 174.091 196.29V193.21C174.091 191.848 173.674 190.933 173.04 190.349C172.394 189.754 171.387 189.38 169.981 189.38ZM169.981 188.38C173.131 188.38 175.091 190.06 175.091 193.21V196.29C175.091 199.44 173.131 201.12 169.981 201.12H158.781V188.38H169.981Z" fill="black"/>
<path d="M39.9906 12.5898V3.13981H2.89062V12.5898H16.1206V51.9998H26.7606V12.5898H39.9906Z" fill="white"/>
<path d="M65.0922 52.8398C78.0422 52.8398 86.5822 44.1598 86.5822 27.5698C86.5822 10.9798 78.0422 2.2998 65.0922 2.2998C52.1422 2.2998 43.6022 10.9798 43.6022 27.5698C43.6022 44.1598 52.1422 52.8398 65.0922 52.8398ZM65.0922 43.3898C58.7222 43.3898 54.8722 38.9798 54.8722 31.2098V23.9298C54.8722 16.1598 58.7222 11.7498 65.0922 11.7498C71.4622 11.7498 75.3122 16.1598 75.3122 23.9298V31.2098C75.3122 38.9798 71.4622 43.3898 65.0922 43.3898Z" fill="white"/>
<path d="M95.1829 3.13981V31.9798C95.1829 46.3998 100.363 52.8398 114.363 52.8398C128.363 52.8398 133.543 46.3998 133.543 31.9798V3.13981H123.183V33.0998C123.183 39.9598 120.663 43.3898 114.363 43.3898C108.063 43.3898 105.543 39.9598 105.543 33.0998V3.13981H95.1829Z" fill="white"/>
<path d="M163.806 52.8398C172.766 52.8398 178.576 48.5698 182.216 41.1498L173.536 36.1098C172.066 40.0998 169.056 43.3898 163.806 43.3898C157.576 43.3898 153.446 39.1898 153.446 31.4898V23.6498C153.446 15.9498 157.576 11.7498 163.806 11.7498C169.056 11.7498 171.646 14.4798 172.906 18.5398L182.076 13.7798C178.506 5.9398 172.766 2.2998 163.806 2.2998C150.646 2.2998 142.176 11.3998 142.176 27.9198C142.176 44.4398 150.646 52.8398 163.806 52.8398Z" fill="white"/>
<path d="M218.922 51.9998H229.562V3.13981H218.922V22.5998H200.302V3.13981H189.662V51.9998H200.302V31.9798H218.922V51.9998Z" fill="white"/>
<path fill-rule="evenodd" clip-rule="evenodd" d="M40.9906 13.5898H27.7606V52.9998H15.1206V13.5898H1.89062V2.13981H40.9906V13.5898ZM2.89062 12.5898V3.13981H39.9906V12.5898H26.7606V51.9998H16.1206V12.5898H2.89062ZM81.4425 47.0886C77.4665 51.5836 71.8008 53.8398 65.0922 53.8398C58.3836 53.8398 52.7179 51.5836 48.7419 47.0886C44.7795 42.6089 42.6022 36.0272 42.6022 27.5698C42.6022 19.1124 44.7795 12.5307 48.7419 8.05101C52.7179 3.55601 58.3836 1.2998 65.0922 1.2998C71.8008 1.2998 77.4665 3.55601 81.4425 8.05101C85.4049 12.5307 87.5822 19.1124 87.5822 27.5698C87.5822 36.0272 85.4049 42.6089 81.4425 47.0886ZM58.3561 39.5667C59.8961 41.3825 62.1534 42.3898 65.0922 42.3898C68.031 42.3898 70.2883 41.3825 71.8283 39.5667C73.3871 37.7287 74.3122 34.9418 74.3122 31.2098V23.9298C74.3122 20.1978 73.3871 17.4109 71.8283 15.5729C70.2883 13.7571 68.031 12.7498 65.0922 12.7498C62.1534 12.7498 59.8961 13.7571 58.3561 15.5729C56.7973 17.4109 55.8722 20.1978 55.8722 23.9298V31.2098C55.8722 34.9418 56.7973 37.7287 58.3561 39.5667ZM94.1829 2.13981H106.543V33.0998C106.543 36.442 107.163 38.731 108.361 40.1802C109.524 41.587 111.392 42.3898 114.363 42.3898C117.334 42.3898 119.202 41.587 120.365 40.1802C121.562 38.731 122.183 36.442 122.183 33.0998V2.13981H134.543V31.9798C134.543 39.2693 133.242 44.7929 129.949 48.4831C126.632 52.201 121.494 53.8398 114.363 53.8398C107.232 53.8398 102.094 52.201 98.7767 48.4831C95.484 44.7929 94.1829 39.2693 94.1829 31.9798V2.13981ZM95.1829 31.9798C95.1829 46.3998 100.363 52.8398 114.363 52.8398C128.363 52.8398 133.543 46.3998 133.543 31.9798V3.13981H123.183V33.0998C123.183 39.9598 120.663 43.3898 114.363 43.3898C108.063 43.3898 105.543 39.9598 105.543 33.0998V3.13981H95.1829V31.9798ZM183.525 40.7532L183.114 41.5902C181.235 45.4211 178.766 48.4976 175.557 50.6123C172.342 52.7303 168.452 53.8398 163.806 53.8398C157.007 53.8398 151.305 51.6629 147.314 47.2451C143.336 42.841 141.176 36.3411 141.176 27.9198C141.176 19.4986 143.335 12.8338 147.301 8.25976C151.282 3.66803 156.983 1.2998 163.806 1.2998C168.422 1.2998 172.295 2.23825 175.496 4.25361C178.698 6.27061 181.141 9.31151 182.986 13.3654L183.38 14.2298L172.306 19.9783L171.951 18.8362C171.358 16.9246 170.482 15.4242 169.221 14.3977C167.973 13.3809 166.25 12.7498 163.806 12.7498C160.926 12.7498 158.624 13.7135 157.033 15.4813C155.432 17.2612 154.446 19.9719 154.446 23.6498V31.4898C154.446 35.1677 155.432 37.8784 157.033 39.6583C158.624 41.4261 160.926 42.3898 163.806 42.3898C166.205 42.3898 168.043 41.6444 169.45 40.4764C170.873 39.2962 171.906 37.6416 172.598 35.7641L173.009 34.6475L183.525 40.7532ZM182.216 41.1498C178.576 48.5698 172.766 52.8398 163.806 52.8398C150.646 52.8398 142.176 44.4398 142.176 27.9198C142.176 11.3998 150.646 2.2998 163.806 2.2998C172.766 2.2998 178.506 5.9398 182.076 13.7798L172.906 18.5398C172.805 18.2127 172.695 17.8942 172.575 17.585C171.212 14.0576 168.633 11.7498 163.806 11.7498C157.576 11.7498 153.446 15.9498 153.446 23.6498V31.4898C153.446 39.1898 157.576 43.3898 163.806 43.3898C168.64 43.3898 171.574 40.6015 173.157 37.0457C173.293 36.739 173.42 36.4266 173.536 36.1098L182.216 41.1498ZM217.922 52.9998V32.9798H201.302V52.9998H188.662V2.13981H201.302V21.5998H217.922V2.13981H230.562V52.9998H217.922ZM218.922 3.13981H229.562V51.9998H218.922V31.9798H200.302V51.9998H189.662V3.13981H200.302V22.5998H218.922V3.13981ZM86.5822 27.5698C86.5822 44.1598 78.0422 52.8398 65.0922 52.8398C52.1422 52.8398 43.6022 44.1598 43.6022 27.5698C43.6022 10.9798 52.1422 2.2998 65.0922 2.2998C78.0422 2.2998 86.5822 10.9798 86.5822 27.5698ZM54.8722 31.2098C54.8722 38.9798 58.7222 43.3898 65.0922 43.3898C71.4622 43.3898 75.3122 38.9798 75.3122 31.2098V23.9298C75.3122 16.1598 71.4622 11.7498 65.0922 11.7498C58.7222 11.7498 54.8722 16.1598 54.8722 23.9298V31.2098Z" fill="black"/>
<path d="M39.9906 19.5898V10.1398H2.89062V19.5898H16.1206V58.9998H26.7606V19.5898H39.9906Z" fill="white"/>
<path d="M65.0922 59.8398C78.0422 59.8398 86.5822 51.1598 86.5822 34.5698C86.5822 17.9798 78.0422 9.2998 65.0922 9.2998C52.1422 9.2998 43.6022 17.9798 43.6022 34.5698C43.6022 51.1598 52.1422 59.8398 65.0922 59.8398ZM65.0922 50.3898C58.7222 50.3898 54.8722 45.9798 54.8722 38.2098V30.9298C54.8722 23.1598 58.7222 18.7498 65.0922 18.7498C71.4622 18.7498 75.3122 23.1598 75.3122 30.9298V38.2098C75.3122 45.9798 71.4622 50.3898 65.0922 50.3898Z" fill="white"/>
<path d="M95.1829 10.1398V38.9798C95.1829 53.3998 100.363 59.8398 114.363 59.8398C128.363 59.8398 133.543 53.3998 133.543 38.9798V10.1398H123.183V40.0998C123.183 46.9598 120.663 50.3898 114.363 50.3898C108.063 50.3898 105.543 46.9598 105.543 40.0998V10.1398H95.1829Z" fill="white"/>
<path d="M163.806 59.8398C172.766 59.8398 178.576 55.5698 182.216 48.1498L173.536 43.1098C172.066 47.0998 169.056 50.3898 163.806 50.3898C157.576 50.3898 153.446 46.1898 153.446 38.4898V30.6498C153.446 22.9498 157.576 18.7498 163.806 18.7498C169.056 18.7498 171.646 21.4798 172.906 25.5398L182.076 20.7798C178.506 12.9398 172.766 9.2998 163.806 9.2998C150.646 9.2998 142.176 18.3998 142.176 34.9198C142.176 51.4398 150.646 59.8398 163.806 59.8398Z" fill="white"/>
<path d="M218.922 58.9998H229.562V10.1398H218.922V29.5998H200.302V10.1398H189.662V58.9998H200.302V38.9798H218.922V58.9998Z" fill="white"/>
<path fill-rule="evenodd" clip-rule="evenodd" d="M40.9906 20.5898H27.7606V59.9998H15.1206V20.5898H1.89062V9.13981H40.9906V20.5898ZM2.89062 19.5898V10.1398H39.9906V19.5898H26.7606V58.9998H16.1206V19.5898H2.89062ZM81.4425 54.0886C77.4665 58.5836 71.8008 60.8398 65.0922 60.8398C58.3836 60.8398 52.7179 58.5836 48.7419 54.0886C44.7795 49.6089 42.6022 43.0272 42.6022 34.5698C42.6022 26.1124 44.7795 19.5307 48.7419 15.051C52.7179 10.556 58.3836 8.2998 65.0922 8.2998C71.8008 8.2998 77.4665 10.556 81.4425 15.051C85.4049 19.5307 87.5822 26.1124 87.5822 34.5698C87.5822 43.0272 85.4049 49.6089 81.4425 54.0886ZM58.3561 46.5667C59.8961 48.3825 62.1534 49.3898 65.0922 49.3898C68.031 49.3898 70.2883 48.3825 71.8283 46.5667C73.3871 44.7287 74.3122 41.9418 74.3122 38.2098V30.9298C74.3122 27.1978 73.3871 24.4109 71.8283 22.5729C70.2883 20.7571 68.031 19.7498 65.0922 19.7498C62.1534 19.7498 59.8961 20.7571 58.3561 22.5729C56.7973 24.4109 55.8722 27.1978 55.8722 30.9298V38.2098C55.8722 41.9418 56.7973 44.7287 58.3561 46.5667ZM94.1829 9.13981H106.543V40.0998C106.543 43.442 107.163 45.731 108.361 47.1802C109.524 48.587 111.392 49.3898 114.363 49.3898C117.334 49.3898 119.202 48.587 120.365 47.1802C121.562 45.731 122.183 43.442 122.183 40.0998V9.13981H134.543V38.9798C134.543 46.2693 133.242 51.7929 129.949 55.4831C126.632 59.201 121.494 60.8398 114.363 60.8398C107.232 60.8398 102.094 59.201 98.7767 55.4831C95.484 51.7929 94.1829 46.2693 94.1829 38.9798V9.13981ZM95.1829 38.9798C95.1829 53.3998 100.363 59.8398 114.363 59.8398C128.363 59.8398 133.543 53.3998 133.543 38.9798V10.1398H123.183V40.0998C123.183 46.9598 120.663 50.3898 114.363 50.3898C108.063 50.3898 105.543 46.9598 105.543 40.0998V10.1398H95.1829V38.9798ZM183.525 47.7532L183.114 48.5902C181.235 52.4211 178.766 55.4976 175.557 57.6123C172.342 59.7303 168.452 60.8398 163.806 60.8398C157.007 60.8398 151.305 58.6629 147.314 54.2451C143.336 49.841 141.176 43.3411 141.176 34.9198C141.176 26.4986 143.335 19.8338 147.301 15.2598C151.282 10.668 156.983 8.2998 163.806 8.2998C168.422 8.2998 172.295 9.23825 175.496 11.2536C178.698 13.2706 181.141 16.3115 182.986 20.3654L183.38 21.2298L172.306 26.9783L171.951 25.8362C171.358 23.9246 170.482 22.4242 169.221 21.3977C167.973 20.3809 166.25 19.7498 163.806 19.7498C160.926 19.7498 158.624 20.7135 157.033 22.4813C155.432 24.2612 154.446 26.9719 154.446 30.6498V38.4898C154.446 42.1677 155.432 44.8784 157.033 46.6583C158.624 48.4261 160.926 49.3898 163.806 49.3898C166.205 49.3898 168.043 48.6444 169.45 47.4764C170.873 46.2962 171.906 44.6416 172.598 42.7641L173.009 41.6475L183.525 47.7532ZM182.216 48.1498C178.576 55.5698 172.766 59.8398 163.806 59.8398C150.646 59.8398 142.176 51.4398 142.176 34.9198C142.176 18.3998 150.646 9.2998 163.806 9.2998C172.766 9.2998 178.506 12.9398 182.076 20.7798L172.906 25.5398C172.805 25.2127 172.695 24.8942 172.575 24.585C171.212 21.0576 168.633 18.7498 163.806 18.7498C157.576 18.7498 153.446 22.9498 153.446 30.6498V38.4898C153.446 46.1898 157.576 50.3898 163.806 50.3898C168.64 50.3898 171.574 47.6015 173.157 44.0457C173.293 43.739 173.42 43.4266 173.536 43.1098L182.216 48.1498ZM217.922 59.9998V39.9798H201.302V59.9998H188.662V9.13981H201.302V28.5998H217.922V9.13981H230.562V59.9998H217.922ZM218.922 10.1398H229.562V58.9998H218.922V38.9798H200.302V58.9998H189.662V10.1398H200.302V29.5998H218.922V10.1398ZM86.5822 34.5698C86.5822 51.1598 78.0422 59.8398 65.0922 59.8398C52.1422 59.8398 43.6022 51.1598 43.6022 34.5698C43.6022 17.9798 52.1422 9.2998 65.0922 9.2998C78.0422 9.2998 86.5822 17.9798 86.5822 34.5698ZM54.8722 38.2098C54.8722 45.9798 58.7222 50.3898 65.0922 50.3898C71.4622 50.3898 75.3122 45.9798 75.3122 38.2098V30.9298C75.3122 23.1598 71.4622 18.7498 65.0922 18.7498C58.7222 18.7498 54.8722 23.1598 54.8722 30.9298V38.2098Z" fill="black"/>
<path d="M39.9906 26.5898V17.1398H2.89062V26.5898H16.1206V65.9998H26.7606V26.5898H39.9906Z" fill="white"/>
<path d="M65.0922 66.8398C78.0422 66.8398 86.5822 58.1598 86.5822 41.5698C86.5822 24.9798 78.0422 16.2998 65.0922 16.2998C52.1422 16.2998 43.6022 24.9798 43.6022 41.5698C43.6022 58.1598 52.1422 66.8398 65.0922 66.8398ZM65.0922 57.3898C58.7222 57.3898 54.8722 52.9798 54.8722 45.2098V37.9298C54.8722 30.1598 58.7222 25.7498 65.0922 25.7498C71.4622 25.7498 75.3122 30.1598 75.3122 37.9298V45.2098C75.3122 52.9798 71.4622 57.3898 65.0922 57.3898Z" fill="white"/>
<path d="M95.1829 17.1398V45.9798C95.1829 60.3998 100.363 66.8398 114.363 66.8398C128.363 66.8398 133.543 60.3998 133.543 45.9798V17.1398H123.183V47.0998C123.183 53.9598 120.663 57.3898 114.363 57.3898C108.063 57.3898 105.543 53.9598 105.543 47.0998V17.1398H95.1829Z" fill="white"/>
<path d="M163.806 66.8398C172.766 66.8398 178.576 62.5698 182.216 55.1498L173.536 50.1098C172.066 54.0998 169.056 57.3898 163.806 57.3898C157.576 57.3898 153.446 53.1898 153.446 45.4898V37.6498C153.446 29.9498 157.576 25.7498 163.806 25.7498C169.056 25.7498 171.646 28.4798 172.906 32.5398L182.076 27.7798C178.506 19.9398 172.766 16.2998 163.806 16.2998C150.646 16.2998 142.176 25.3998 142.176 41.9198C142.176 58.4398 150.646 66.8398 163.806 66.8398Z" fill="white"/>
<path d="M218.922 65.9998H229.562V17.1398H218.922V36.5998H200.302V17.1398H189.662V65.9998H200.302V45.9798H218.922V65.9998Z" fill="white"/>
<path fill-rule="evenodd" clip-rule="evenodd" d="M40.9906 27.5898H27.7606V66.9998H15.1206V27.5898H1.89062V16.1398H40.9906V27.5898ZM2.89062 26.5898V17.1398H39.9906V26.5898H26.7606V65.9998H16.1206V26.5898H2.89062ZM81.4425 61.0886C77.4665 65.5836 71.8008 67.8398 65.0922 67.8398C58.3836 67.8398 52.7179 65.5836 48.7419 61.0886C44.7795 56.6089 42.6022 50.0272 42.6022 41.5698C42.6022 33.1124 44.7795 26.5307 48.7419 22.051C52.7179 17.556 58.3836 15.2998 65.0922 15.2998C71.8008 15.2998 77.4665 17.556 81.4425 22.051C85.4049 26.5307 87.5822 33.1124 87.5822 41.5698C87.5822 50.0272 85.4049 56.6089 81.4425 61.0886ZM58.3561 53.5667C59.8961 55.3825 62.1534 56.3898 65.0922 56.3898C68.031 56.3898 70.2883 55.3825 71.8283 53.5667C73.3871 51.7287 74.3122 48.9418 74.3122 45.2098V37.9298C74.3122 34.1978 73.3871 31.4109 71.8283 29.5729C70.2883 27.7571 68.031 26.7498 65.0922 26.7498C62.1534 26.7498 59.8961 27.7571 58.3561 29.5729C56.7973 31.4109 55.8722 34.1978 55.8722 37.9298V45.2098C55.8722 48.9418 56.7973 51.7287 58.3561 53.5667ZM94.1829 16.1398H106.543V47.0998C106.543 50.442 107.163 52.731 108.361 54.1802C109.524 55.587 111.392 56.3898 114.363 56.3898C117.334 56.3898 119.202 55.587 120.365 54.1802C121.562 52.731 122.183 50.442 122.183 47.0998V16.1398H134.543V45.9798C134.543 53.2693 133.242 58.7929 129.949 62.4831C126.632 66.201 121.494 67.8398 114.363 67.8398C107.232 67.8398 102.094 66.201 98.7767 62.4831C95.484 58.7929 94.1829 53.2693 94.1829 45.9798V16.1398ZM95.1829 45.9798C95.1829 60.3998 100.363 66.8398 114.363 66.8398C128.363 66.8398 133.543 60.3998 133.543 45.9798V17.1398H123.183V47.0998C123.183 53.9598 120.663 57.3898 114.363 57.3898C108.063 57.3898 105.543 53.9598 105.543 47.0998V17.1398H95.1829V45.9798ZM183.525 54.7532L183.114 55.5902C181.235 59.4211 178.766 62.4976 175.557 64.6123C172.342 66.7303 168.452 67.8398 163.806 67.8398C157.007 67.8398 151.305 65.6629 147.314 61.2451C143.336 56.841 141.176 50.3411 141.176 41.9198C141.176 33.4986 143.335 26.8338 147.301 22.2598C151.282 17.668 156.983 15.2998 163.806 15.2998C168.422 15.2998 172.295 16.2382 175.496 18.2536C178.698 20.2706 181.141 23.3115 182.986 27.3654L183.38 28.2298L172.306 33.9783L171.951 32.8362C171.358 30.9246 170.482 29.4242 169.221 28.3977C167.973 27.3809 166.25 26.7498 163.806 26.7498C160.926 26.7498 158.624 27.7135 157.033 29.4813C155.432 31.2612 154.446 33.9719 154.446 37.6498V45.4898C154.446 49.1677 155.432 51.8784 157.033 53.6583C158.624 55.4261 160.926 56.3898 163.806 56.3898C166.205 56.3898 168.043 55.6444 169.45 54.4764C170.873 53.2962 171.906 51.6416 172.598 49.7641L173.009 48.6475L183.525 54.7532ZM182.216 55.1498C178.576 62.5698 172.766 66.8398 163.806 66.8398C150.646 66.8398 142.176 58.4398 142.176 41.9198C142.176 25.3998 150.646 16.2998 163.806 16.2998C172.766 16.2998 178.506 19.9398 182.076 27.7798L172.906 32.5398C172.805 32.2127 172.695 31.8942 172.575 31.585C171.212 28.0576 168.633 25.7498 163.806 25.7498C157.576 25.7498 153.446 29.9498 153.446 37.6498V45.4898C153.446 53.1898 157.576 57.3898 163.806 57.3898C168.64 57.3898 171.574 54.6015 173.157 51.0457C173.293 50.739 173.42 50.4266 173.536 50.1098L182.216 55.1498ZM217.922 66.9998V46.9798H201.302V66.9998H188.662V16.1398H201.302V35.5998H217.922V16.1398H230.562V66.9998H217.922ZM218.922 17.1398H229.562V65.9998H218.922V45.9798H200.302V65.9998H189.662V17.1398H200.302V36.5998H218.922V17.1398ZM86.5822 41.5698C86.5822 58.1598 78.0422 66.8398 65.0922 66.8398C52.1422 66.8398 43.6022 58.1598 43.6022 41.5698C43.6022 24.9798 52.1422 16.2998 65.0922 16.2998C78.0422 16.2998 86.5822 24.9798 86.5822 41.5698ZM54.8722 45.2098C54.8722 52.9798 58.7222 57.3898 65.0922 57.3898C71.4622 57.3898 75.3122 52.9798 75.3122 45.2098V37.9298C75.3122 30.1598 71.4622 25.7498 65.0922 25.7498C58.7222 25.7498 54.8722 30.1598 54.8722 37.9298V45.2098Z" fill="black"/>
<path d="M39.9906 33.5898V24.1398H2.89062V33.5898H16.1206V72.9998H26.7606V33.5898H39.9906Z" fill="white"/>
<path d="M65.0922 73.8398C78.0422 73.8398 86.5822 65.1598 86.5822 48.5698C86.5822 31.9798 78.0422 23.2998 65.0922 23.2998C52.1422 23.2998 43.6022 31.9798 43.6022 48.5698C43.6022 65.1598 52.1422 73.8398 65.0922 73.8398ZM65.0922 64.3898C58.7222 64.3898 54.8722 59.9798 54.8722 52.2098V44.9298C54.8722 37.1598 58.7222 32.7498 65.0922 32.7498C71.4622 32.7498 75.3122 37.1598 75.3122 44.9298V52.2098C75.3122 59.9798 71.4622 64.3898 65.0922 64.3898Z" fill="white"/>
<path d="M95.1829 24.1398V52.9798C95.1829 67.3998 100.363 73.8398 114.363 73.8398C128.363 73.8398 133.543 67.3998 133.543 52.9798V24.1398H123.183V54.0998C123.183 60.9598 120.663 64.3898 114.363 64.3898C108.063 64.3898 105.543 60.9598 105.543 54.0998V24.1398H95.1829Z" fill="white"/>
<path d="M163.806 73.8398C172.766 73.8398 178.576 69.5698 182.216 62.1498L173.536 57.1098C172.066 61.0998 169.056 64.3898 163.806 64.3898C157.576 64.3898 153.446 60.1898 153.446 52.4898V44.6498C153.446 36.9498 157.576 32.7498 163.806 32.7498C169.056 32.7498 171.646 35.4798 172.906 39.5398L182.076 34.7798C178.506 26.9398 172.766 23.2998 163.806 23.2998C150.646 23.2998 142.176 32.3998 142.176 48.9198C142.176 65.4398 150.646 73.8398 163.806 73.8398Z" fill="white"/>
<path d="M218.922 72.9998H229.562V24.1398H218.922V43.5998H200.302V24.1398H189.662V72.9998H200.302V52.9798H218.922V72.9998Z" fill="white"/>
<path fill-rule="evenodd" clip-rule="evenodd" d="M40.9906 34.5898H27.7606V73.9998H15.1206V34.5898H1.89062V23.1398H40.9906V34.5898ZM2.89062 33.5898V24.1398H39.9906V33.5898H26.7606V72.9998H16.1206V33.5898H2.89062ZM81.4425 68.0886C77.4665 72.5836 71.8008 74.8398 65.0922 74.8398C58.3836 74.8398 52.7179 72.5836 48.7419 68.0886C44.7795 63.6089 42.6022 57.0272 42.6022 48.5698C42.6022 40.1124 44.7795 33.5307 48.7419 29.051C52.7179 24.556 58.3836 22.2998 65.0922 22.2998C71.8008 22.2998 77.4665 24.556 81.4425 29.051C85.4049 33.5307 87.5822 40.1124 87.5822 48.5698C87.5822 57.0272 85.4049 63.6089 81.4425 68.0886ZM58.3561 60.5667C59.8961 62.3825 62.1534 63.3898 65.0922 63.3898C68.031 63.3898 70.2883 62.3825 71.8283 60.5667C73.3871 58.7287 74.3122 55.9418 74.3122 52.2098V44.9298C74.3122 41.1978 73.3871 38.4109 71.8283 36.5729C70.2883 34.7571 68.031 33.7498 65.0922 33.7498C62.1534 33.7498 59.8961 34.7571 58.3561 36.5729C56.7973 38.4109 55.8722 41.1978 55.8722 44.9298V52.2098C55.8722 55.9418 56.7973 58.7287 58.3561 60.5667ZM94.1829 23.1398H106.543V54.0998C106.543 57.442 107.163 59.731 108.361 61.1802C109.524 62.587 111.392 63.3898 114.363 63.3898C117.334 63.3898 119.202 62.587 120.365 61.1802C121.562 59.731 122.183 57.442 122.183 54.0998V23.1398H134.543V52.9798C134.543 60.2693 133.242 65.7929 129.949 69.4831C126.632 73.201 121.494 74.8398 114.363 74.8398C107.232 74.8398 102.094 73.201 98.7767 69.4831C95.484 65.7929 94.1829 60.2693 94.1829 52.9798V23.1398ZM95.1829 52.9798C95.1829 67.3998 100.363 73.8398 114.363 73.8398C128.363 73.8398 133.543 67.3998 133.543 52.9798V24.1398H123.183V54.0998C123.183 60.9598 120.663 64.3898 114.363 64.3898C108.063 64.3898 105.543 60.9598 105.543 54.0998V24.1398H95.1829V52.9798ZM183.525 61.7532L183.114 62.5902C181.235 66.4211 178.766 69.4976 175.557 71.6123C172.342 73.7303 168.452 74.8398 163.806 74.8398C157.007 74.8398 151.305 72.6629 147.314 68.2451C143.336 63.841 141.176 57.3411 141.176 48.9198C141.176 40.4986 143.335 33.8338 147.301 29.2598C151.282 24.668 156.983 22.2998 163.806 22.2998C168.422 22.2998 172.295 23.2382 175.496 25.2536C178.698 27.2706 181.141 30.3115 182.986 34.3654L183.38 35.2298L172.306 40.9783L171.951 39.8362C171.358 37.9246 170.482 36.4242 169.221 35.3977C167.973 34.3809 166.25 33.7498 163.806 33.7498C160.926 33.7498 158.624 34.7135 157.033 36.4813C155.432 38.2612 154.446 40.9719 154.446 44.6498V52.4898C154.446 56.1677 155.432 58.8784 157.033 60.6583C158.624 62.4261 160.926 63.3898 163.806 63.3898C166.205 63.3898 168.043 62.6444 169.45 61.4764C170.873 60.2962 171.906 58.6416 172.598 56.7641L173.009 55.6475L183.525 61.7532ZM182.216 62.1498C178.576 69.5698 172.766 73.8398 163.806 73.8398C150.646 73.8398 142.176 65.4398 142.176 48.9198C142.176 32.3998 150.646 23.2998 163.806 23.2998C172.766 23.2998 178.506 26.9398 182.076 34.7798L172.906 39.5398C172.805 39.2127 172.695 38.8942 172.575 38.585C171.212 35.0576 168.633 32.7498 163.806 32.7498C157.576 32.7498 153.446 36.9498 153.446 44.6498V52.4898C153.446 60.1898 157.576 64.3898 163.806 64.3898C168.64 64.3898 171.574 61.6015 173.157 58.0457C173.293 57.739 173.42 57.4266 173.536 57.1098L182.216 62.1498ZM217.922 73.9998V53.9798H201.302V73.9998H188.662V23.1398H201.302V42.5998H217.922V23.1398H230.562V73.9998H217.922ZM218.922 24.1398H229.562V72.9998H218.922V52.9798H200.302V72.9998H189.662V24.1398H200.302V43.5998H218.922V24.1398ZM86.5822 48.5698C86.5822 65.1598 78.0422 73.8398 65.0922 73.8398C52.1422 73.8398 43.6022 65.1598 43.6022 48.5698C43.6022 31.9798 52.1422 23.2998 65.0922 23.2998C78.0422 23.2998 86.5822 31.9798 86.5822 48.5698ZM54.8722 52.2098C54.8722 59.9798 58.7222 64.3898 65.0922 64.3898C71.4622 64.3898 75.3122 59.9798 75.3122 52.2098V44.9298C75.3122 37.1598 71.4622 32.7498 65.0922 32.7498C58.7222 32.7498 54.8722 37.1598 54.8722 44.9298V52.2098Z" fill="black"/>
<path d="M26.7606 90.5898V130H16.1206V90.5898H2.89062V81.1398H39.9906V90.5898H26.7606Z" fill="white"/>
<path d="M65.0922 130.84C61.8722 130.84 58.9322 130.303 56.2722 129.23C53.6122 128.156 51.3489 126.57 49.4822 124.47C47.6155 122.323 46.1689 119.686 45.1422 116.56C44.1155 113.386 43.6022 109.723 43.6022 105.57C43.6022 101.416 44.1155 97.7765 45.1422 94.6498C46.1689 91.4765 47.6155 88.8398 49.4822 86.7398C51.3489 84.5931 53.6122 82.9831 56.2722 81.9098C58.9322 80.8365 61.8722 80.2998 65.0922 80.2998C68.3122 80.2998 71.2522 80.8365 73.9122 81.9098C76.5722 82.9831 78.8355 84.5931 80.7022 86.7398C82.5689 88.8398 84.0155 91.4765 85.0422 94.6498C86.0689 97.7765 86.5822 101.416 86.5822 105.57C86.5822 109.723 86.0689 113.386 85.0422 116.56C84.0155 119.686 82.5689 122.323 80.7022 124.47C78.8355 126.57 76.5722 128.156 73.9122 129.23C71.2522 130.303 68.3122 130.84 65.0922 130.84ZM65.0922 121.39C68.3122 121.39 70.8089 120.34 72.5822 118.24C74.4022 116.14 75.3122 113.13 75.3122 109.21V101.93C75.3122 98.0098 74.4022 94.9998 72.5822 92.8998C70.8089 90.7998 68.3122 89.7498 65.0922 89.7498C61.8722 89.7498 59.3522 90.7998 57.5322 92.8998C55.7589 94.9998 54.8722 98.0098 54.8722 101.93V109.21C54.8722 113.13 55.7589 116.14 57.5322 118.24C59.3522 120.34 61.8722 121.39 65.0922 121.39Z" fill="white"/>
<path d="M105.543 81.1398V111.1C105.543 114.553 106.22 117.143 107.573 118.87C108.926 120.55 111.19 121.39 114.363 121.39C117.536 121.39 119.8 120.55 121.153 118.87C122.506 117.143 123.183 114.553 123.183 111.1V81.1398H133.543V109.98C133.543 113.573 133.193 116.7 132.493 119.36C131.84 121.973 130.743 124.143 129.203 125.87C127.663 127.55 125.68 128.81 123.253 129.65C120.826 130.443 117.863 130.84 114.363 130.84C110.863 130.84 107.9 130.443 105.473 129.65C103.046 128.81 101.063 127.55 99.5229 125.87C97.9829 124.143 96.8629 121.973 96.1629 119.36C95.5096 116.7 95.1829 113.573 95.1829 109.98V81.1398H105.543Z" fill="white"/>
<path d="M163.806 130.84C160.493 130.84 157.506 130.326 154.846 129.3C152.186 128.226 149.923 126.663 148.056 124.61C146.19 122.51 144.743 119.92 143.716 116.84C142.69 113.713 142.176 110.073 142.176 105.92C142.176 101.813 142.69 98.1731 143.716 94.9998C144.743 91.7798 146.19 89.0965 148.056 86.9498C149.923 84.7565 152.186 83.0998 154.846 81.9798C157.506 80.8598 160.493 80.2998 163.806 80.2998C168.333 80.2998 172.066 81.2331 175.006 83.0998C177.946 84.9198 180.303 87.8131 182.076 91.7798L172.906 96.5398C172.253 94.4865 171.226 92.8531 169.826 91.6398C168.473 90.3798 166.466 89.7498 163.806 89.7498C160.68 89.7498 158.16 90.7765 156.246 92.8298C154.38 94.8365 153.446 97.7765 153.446 101.65V109.49C153.446 113.363 154.38 116.326 156.246 118.38C158.16 120.386 160.68 121.39 163.806 121.39C166.42 121.39 168.496 120.69 170.036 119.29C171.623 117.843 172.79 116.116 173.536 114.11L182.216 119.15C180.396 122.883 177.993 125.776 175.006 127.83C172.066 129.836 168.333 130.84 163.806 130.84Z" fill="white"/>
<path d="M218.922 109.98H200.302V130H189.662V81.1398H200.302V100.6H218.922V81.1398H229.562V130H218.922V109.98Z" fill="white"/>
<path fill-rule="evenodd" clip-rule="evenodd" d="M27.7606 131H15.1206V91.5898H1.89062V80.1398H40.9906V91.5898H27.7606V131ZM16.1206 90.5898V130H26.7606V90.5898H39.9906V81.1398H2.89062V90.5898H16.1206ZM48.7276 125.126C46.7608 122.864 45.2539 120.105 44.1921 116.872L44.1907 116.868C43.1251 113.574 42.6022 109.803 42.6022 105.57C42.6022 101.338 43.1248 97.5894 44.1913 94.3402C45.252 91.0623 46.7591 88.2995 48.731 86.0797C50.7015 83.8148 53.0945 82.1137 55.898 80.9825C58.6906 79.8556 61.7596 79.2998 65.0922 79.2998C68.4248 79.2998 71.4938 79.8556 74.2864 80.9825C77.0898 82.1137 79.4827 83.8147 81.4532 86.0795C83.4254 88.2995 84.9326 91.0627 85.9933 94.341C87.0597 97.59 87.5822 101.338 87.5822 105.57C87.5822 109.803 87.0592 113.574 85.9936 116.868L85.9923 116.872C84.9305 120.105 83.4235 122.864 81.4568 125.126L81.4496 125.134C79.4783 127.352 77.0863 129.027 74.2864 130.157C71.4938 131.284 68.4248 131.84 65.0922 131.84C61.7596 131.84 58.6906 131.284 55.898 130.157C53.0981 129.027 50.7061 127.352 48.7348 125.134L48.7276 125.126ZM85.0422 94.6498C84.0155 91.4765 82.5689 88.8398 80.7022 86.7398C78.8355 84.5931 76.5722 82.9831 73.9122 81.9098C71.2522 80.8365 68.3122 80.2998 65.0922 80.2998C61.8722 80.2998 58.9322 80.8365 56.2722 81.9098C53.6122 82.9831 51.3489 84.5931 49.4822 86.7398C47.6155 88.8398 46.1689 91.4765 45.1422 94.6498C44.1155 97.7765 43.6022 101.416 43.6022 105.57C43.6022 109.723 44.1155 113.386 45.1422 116.56C46.1689 119.686 47.6155 122.323 49.4822 124.47C51.3489 126.57 53.6122 128.156 56.2722 129.23C58.9322 130.303 61.8722 130.84 65.0922 130.84C68.3122 130.84 71.2522 130.303 73.9122 129.23C76.5722 128.156 78.8355 126.57 80.7022 124.47C82.5689 122.323 84.0155 119.686 85.0422 116.56C86.0689 113.386 86.5822 109.723 86.5822 105.57C86.5822 101.416 86.0689 97.7765 85.0422 94.6498ZM71.8265 117.585C73.4349 115.729 74.3122 112.987 74.3122 109.21V101.93C74.3122 98.1525 73.4349 95.4105 71.8265 93.5547L71.8181 93.545C70.2682 91.7096 68.0737 90.7498 65.0922 90.7498C62.1138 90.7498 59.8908 91.708 58.2921 93.5499C56.7273 95.406 55.8722 98.1503 55.8722 101.93V109.21C55.8722 112.989 56.7273 115.734 58.292 117.59C59.8907 119.432 62.1138 120.39 65.0922 120.39C68.0737 120.39 70.2682 119.43 71.8182 117.595L71.8265 117.585ZM57.5322 118.24C55.7589 116.14 54.8722 113.13 54.8722 109.21V101.93C54.8722 98.0098 55.7589 94.9998 57.5322 92.8998C59.3522 90.7998 61.8722 89.7498 65.0922 89.7498C68.3122 89.7498 70.8089 90.7998 72.5822 92.8998C74.4022 94.9998 75.3122 98.0098 75.3122 101.93V109.21C75.3122 113.13 74.4022 116.14 72.5822 118.24C70.8089 120.34 68.3122 121.39 65.0922 121.39C61.8722 121.39 59.3522 120.34 57.5322 118.24ZM106.543 80.1398V111.1C106.543 114.446 107.202 116.772 108.356 118.248C109.444 119.594 111.349 120.39 114.363 120.39C117.377 120.39 119.282 119.594 120.37 118.248C121.523 116.772 122.183 114.446 122.183 111.1V80.1398H134.543V109.98C134.543 113.632 134.188 116.846 133.462 119.608C132.775 122.35 131.612 124.671 129.949 126.535L129.94 126.546C128.274 128.363 126.143 129.707 123.58 130.595L123.572 130.598L123.564 130.6C121.007 131.436 117.932 131.84 114.363 131.84C110.794 131.84 107.719 131.436 105.162 130.6L105.154 130.598L105.146 130.595C102.582 129.707 100.452 128.363 98.7857 126.546L98.7765 126.535C97.1163 124.674 95.9305 122.357 95.1969 119.619L95.1942 119.608L95.1918 119.598C94.5144 116.84 94.1829 113.63 94.1829 109.98V80.1398H106.543ZM132.493 119.36C133.193 116.7 133.543 113.573 133.543 109.98V81.1398H123.183V111.1C123.183 114.553 122.506 117.143 121.153 118.87C119.8 120.55 117.536 121.39 114.363 121.39C111.19 121.39 108.926 120.55 107.573 118.87C106.22 117.143 105.543 114.553 105.543 111.1V81.1398H95.1829V109.98C95.1829 113.573 95.5096 116.7 96.1629 119.36C96.8629 121.973 97.9829 124.143 99.5229 125.87C101.063 127.55 103.046 128.81 105.473 129.65C107.9 130.443 110.863 130.84 114.363 130.84C117.863 130.84 120.826 130.443 123.253 129.65C125.68 128.81 127.663 127.55 129.203 125.87C130.743 124.143 131.84 121.973 132.493 119.36ZM154.479 130.23L154.472 130.227C151.678 129.099 149.288 127.451 147.316 125.282L147.309 125.274C145.339 123.058 143.831 120.345 142.768 117.156L142.766 117.152C141.699 113.902 141.176 110.153 141.176 105.92C141.176 101.734 141.699 97.9877 142.764 94.696C143.823 91.3725 145.329 88.5642 147.298 86.2981C149.266 83.9872 151.656 82.2381 154.458 81.0582C157.258 79.8794 160.379 79.2998 163.806 79.2998C168.465 79.2998 172.397 80.2599 175.538 82.2527C178.685 84.2024 181.156 87.2715 182.989 91.3717L183.374 92.2328L172.313 97.9743L171.953 96.843C171.347 94.936 170.411 93.4698 169.171 92.3955L169.158 92.3838L169.145 92.3717C168.044 91.3467 166.324 90.7498 163.806 90.7498C160.922 90.7498 158.68 91.6853 156.979 93.5109M175.006 83.0998C172.066 81.2331 168.333 80.2998 163.806 80.2998C160.493 80.2998 157.506 80.8598 154.846 81.9798C152.186 83.0998 149.923 84.7565 148.056 86.9498C146.19 89.0965 144.743 91.7798 143.716 94.9998C142.69 98.1731 142.176 101.813 142.176 105.92C142.176 110.073 142.69 113.713 143.716 116.84C144.743 119.92 146.19 122.51 148.056 124.61C149.923 126.663 152.186 128.226 154.846 129.3C157.506 130.326 160.493 130.84 163.806 130.84C168.333 130.84 172.066 129.836 175.006 127.83C177.993 125.776 180.396 122.883 182.216 119.15L173.536 114.11C173.418 114.428 173.289 114.738 173.15 115.042C172.41 116.656 171.372 118.072 170.036 119.29C168.496 120.69 166.42 121.39 163.806 121.39C160.68 121.39 158.16 120.386 156.246 118.38C154.38 116.326 153.446 113.363 153.446 109.49V101.65C153.446 97.7765 154.38 94.8365 156.246 92.8298C158.16 90.7765 160.68 89.7498 163.806 89.7498C166.466 89.7498 168.473 90.3798 169.826 91.6398C171.003 92.6598 171.916 93.9765 172.566 95.59C172.689 95.896 172.802 96.2125 172.906 96.5398L182.076 91.7798C180.303 87.8131 177.946 84.9198 175.006 83.0998ZM156.978 117.698C155.34 115.891 154.446 113.207 154.446 109.49V101.65C154.446 97.9251 155.344 95.2681 156.979 93.5109M156.978 117.698C158.677 119.475 160.92 120.39 163.806 120.39C166.236 120.39 168.05 119.743 169.363 118.551C170.832 117.211 171.908 115.618 172.599 113.761L173.013 112.649L183.523 118.752L183.115 119.588C181.231 123.454 178.721 126.489 175.573 128.654L175.57 128.656C172.424 130.803 168.48 131.84 163.806 131.84C160.39 131.84 157.278 131.31 154.486 130.233L154.479 130.23M201.302 131H188.662V80.1398H201.302V99.5998H217.922V80.1398H230.562V131H217.922V110.98H201.302V131ZM200.302 109.98H218.922V130H229.562V81.1398H218.922V100.6H200.302V81.1398H189.662V130H200.302V109.98Z" fill="black"/>
<path d="M39.9906 97.5898V88.1398H2.89062V97.5898H16.1206V137H26.7606V97.5898H39.9906Z" fill="white"/>
<path d="M65.0922 137.84C78.0422 137.84 86.5822 129.16 86.5822 112.57C86.5822 95.9798 78.0422 87.2998 65.0922 87.2998C52.1422 87.2998 43.6022 95.9798 43.6022 112.57C43.6022 129.16 52.1422 137.84 65.0922 137.84ZM65.0922 128.39C58.7222 128.39 54.8722 123.98 54.8722 116.21V108.93C54.8722 101.16 58.7222 96.7498 65.0922 96.7498C71.4622 96.7498 75.3122 101.16 75.3122 108.93V116.21C75.3122 123.98 71.4622 128.39 65.0922 128.39Z" fill="white"/>
<path d="M95.1829 88.1398V116.98C95.1829 131.4 100.363 137.84 114.363 137.84C128.363 137.84 133.543 131.4 133.543 116.98V88.1398H123.183V118.1C123.183 124.96 120.663 128.39 114.363 128.39C108.063 128.39 105.543 124.96 105.543 118.1V88.1398H95.1829Z" fill="white"/>
<path d="M163.806 137.84C172.766 137.84 178.576 133.57 182.216 126.15L173.536 121.11C172.066 125.1 169.056 128.39 163.806 128.39C157.576 128.39 153.446 124.19 153.446 116.49V108.65C153.446 100.95 157.576 96.7498 163.806 96.7498C169.056 96.7498 171.646 99.4798 172.906 103.54L182.076 98.7798C178.506 90.9398 172.766 87.2998 163.806 87.2998C150.646 87.2998 142.176 96.3998 142.176 112.92C142.176 129.44 150.646 137.84 163.806 137.84Z" fill="white"/>
<path d="M218.922 137H229.562V88.1398H218.922V107.6H200.302V88.1398H189.662V137H200.302V116.98H218.922V137Z" fill="white"/>
<path fill-rule="evenodd" clip-rule="evenodd" d="M40.9906 98.5898H27.7606V138H15.1206V98.5898H1.89062V87.1398H40.9906V98.5898ZM2.89062 97.5898V88.1398H39.9906V97.5898H26.7606V137H16.1206V97.5898H2.89062ZM81.4425 132.089C77.4665 136.584 71.8008 138.84 65.0922 138.84C58.3836 138.84 52.7179 136.584 48.7419 132.089C44.7795 127.609 42.6022 121.027 42.6022 112.57C42.6022 104.112 44.7795 97.5307 48.7419 93.051C52.7179 88.556 58.3836 86.2998 65.0922 86.2998C71.8008 86.2998 77.4665 88.556 81.4425 93.051C85.4049 97.5307 87.5822 104.112 87.5822 112.57C87.5822 121.027 85.4049 127.609 81.4425 132.089ZM58.3561 124.567C59.8961 126.383 62.1534 127.39 65.0922 127.39C68.031 127.39 70.2883 126.383 71.8283 124.567C73.3871 122.729 74.3122 119.942 74.3122 116.21V108.93C74.3122 105.198 73.3871 102.411 71.8283 100.573C70.2883 98.7571 68.031 97.7498 65.0922 97.7498C62.1534 97.7498 59.8961 98.7571 58.3561 100.573C56.7973 102.411 55.8722 105.198 55.8722 108.93V116.21C55.8722 119.942 56.7973 122.729 58.3561 124.567ZM94.1829 87.1398H106.543V118.1C106.543 121.442 107.163 123.731 108.361 125.18C109.524 126.587 111.392 127.39 114.363 127.39C117.334 127.39 119.202 126.587 120.365 125.18C121.562 123.731 122.183 121.442 122.183 118.1V87.1398H134.543V116.98C134.543 124.269 133.242 129.793 129.949 133.483C126.632 137.201 121.494 138.84 114.363 138.84C107.232 138.84 102.094 137.201 98.7767 133.483C95.484 129.793 94.1829 124.269 94.1829 116.98V87.1398ZM95.1829 116.98C95.1829 131.4 100.363 137.84 114.363 137.84C128.363 137.84 133.543 131.4 133.543 116.98V88.1398H123.183V118.1C123.183 124.96 120.663 128.39 114.363 128.39C108.063 128.39 105.543 124.96 105.543 118.1V88.1398H95.1829V116.98ZM183.525 125.753L183.114 126.59C181.235 130.421 178.766 133.498 175.557 135.612C172.342 137.73 168.452 138.84 163.806 138.84C157.007 138.84 151.305 136.663 147.314 132.245C143.336 127.841 141.176 121.341 141.176 112.92C141.176 104.499 143.335 97.8338 147.301 93.2598C151.282 88.668 156.983 86.2998 163.806 86.2998C168.422 86.2998 172.295 87.2382 175.496 89.2536C178.698 91.2706 181.141 94.3115 182.986 98.3654L183.38 99.2298L172.306 104.978L171.951 103.836C171.358 101.925 170.482 100.424 169.221 99.3977C167.973 98.3809 166.25 97.7498 163.806 97.7498C160.926 97.7498 158.624 98.7135 157.033 100.481C155.432 102.261 154.446 104.972 154.446 108.65V116.49C154.446 120.168 155.432 122.878 157.033 124.658C158.624 126.426 160.926 127.39 163.806 127.39C166.205 127.39 168.043 126.644 169.45 125.476C170.873 124.296 171.906 122.642 172.598 120.764L173.009 119.647L183.525 125.753ZM182.216 126.15C178.576 133.57 172.766 137.84 163.806 137.84C150.646 137.84 142.176 129.44 142.176 112.92C142.176 96.3998 150.646 87.2998 163.806 87.2998C172.766 87.2998 178.506 90.9398 182.076 98.7798L172.906 103.54C172.805 103.213 172.695 102.894 172.575 102.585C171.212 99.0576 168.633 96.7498 163.806 96.7498C157.576 96.7498 153.446 100.95 153.446 108.65V116.49C153.446 124.19 157.576 128.39 163.806 128.39C168.64 128.39 171.574 125.602 173.157 122.046C173.293 121.739 173.42 121.427 173.536 121.11L182.216 126.15ZM217.922 138V117.98H201.302V138H188.662V87.1398H201.302V106.6H217.922V87.1398H230.562V138H217.922ZM218.922 88.1398H229.562V137H218.922V116.98H200.302V137H189.662V88.1398H200.302V107.6H218.922V88.1398ZM86.5822 112.57C86.5822 129.16 78.0422 137.84 65.0922 137.84C52.1422 137.84 43.6022 129.16 43.6022 112.57C43.6022 95.9798 52.1422 87.2998 65.0922 87.2998C78.0422 87.2998 86.5822 95.9798 86.5822 112.57ZM54.8722 116.21C54.8722 123.98 58.7222 128.39 65.0922 128.39C71.4622 128.39 75.3122 123.98 75.3122 116.21V108.93C75.3122 101.16 71.4622 96.7498 65.0922 96.7498C58.7222 96.7498 54.8722 101.16 54.8722 108.93V116.21Z" fill="black"/>
<path d="M39.9906 104.59V95.1398H2.89062V104.59H16.1206V144H26.7606V104.59H39.9906Z" fill="white"/>
<path d="M65.0922 144.84C78.0422 144.84 86.5822 136.16 86.5822 119.57C86.5822 102.98 78.0422 94.2998 65.0922 94.2998C52.1422 94.2998 43.6022 102.98 43.6022 119.57C43.6022 136.16 52.1422 144.84 65.0922 144.84ZM65.0922 135.39C58.7222 135.39 54.8722 130.98 54.8722 123.21V115.93C54.8722 108.16 58.7222 103.75 65.0922 103.75C71.4622 103.75 75.3122 108.16 75.3122 115.93V123.21C75.3122 130.98 71.4622 135.39 65.0922 135.39Z" fill="white"/>
<path d="M95.1829 95.1398V123.98C95.1829 138.4 100.363 144.84 114.363 144.84C128.363 144.84 133.543 138.4 133.543 123.98V95.1398H123.183V125.1C123.183 131.96 120.663 135.39 114.363 135.39C108.063 135.39 105.543 131.96 105.543 125.1V95.1398H95.1829Z" fill="white"/>
<path d="M163.806 144.84C172.766 144.84 178.576 140.57 182.216 133.15L173.536 128.11C172.066 132.1 169.056 135.39 163.806 135.39C157.576 135.39 153.446 131.19 153.446 123.49V115.65C153.446 107.95 157.576 103.75 163.806 103.75C169.056 103.75 171.646 106.48 172.906 110.54L182.076 105.78C178.506 97.9398 172.766 94.2998 163.806 94.2998C150.646 94.2998 142.176 103.4 142.176 119.92C142.176 136.44 150.646 144.84 163.806 144.84Z" fill="white"/>
<path d="M218.922 144H229.562V95.1398H218.922V114.6H200.302V95.1398H189.662V144H200.302V123.98H218.922V144Z" fill="white"/>
<path fill-rule="evenodd" clip-rule="evenodd" d="M40.9906 105.59H27.7606V145H15.1206V105.59H1.89062V94.1398H40.9906V105.59ZM2.89062 104.59V95.1398H39.9906V104.59H26.7606V144H16.1206V104.59H2.89062ZM81.4425 139.089C77.4665 143.584 71.8008 145.84 65.0922 145.84C58.3836 145.84 52.7179 143.584 48.7419 139.089C44.7795 134.609 42.6022 128.027 42.6022 119.57C42.6022 111.112 44.7795 104.531 48.7419 100.051C52.7179 95.556 58.3836 93.2998 65.0922 93.2998C71.8008 93.2998 77.4665 95.556 81.4425 100.051C85.4049 104.531 87.5822 111.112 87.5822 119.57C87.5822 128.027 85.4049 134.609 81.4425 139.089ZM58.3561 131.567C59.8961 133.383 62.1534 134.39 65.0922 134.39C68.031 134.39 70.2883 133.383 71.8283 131.567C73.3871 129.729 74.3122 126.942 74.3122 123.21V115.93C74.3122 112.198 73.3871 109.411 71.8283 107.573C70.2883 105.757 68.031 104.75 65.0922 104.75C62.1534 104.75 59.8961 105.757 58.3561 107.573C56.7973 109.411 55.8722 112.198 55.8722 115.93V123.21C55.8722 126.942 56.7973 129.729 58.3561 131.567ZM94.1829 94.1398H106.543V125.1C106.543 128.442 107.163 130.731 108.361 132.18C109.524 133.587 111.392 134.39 114.363 134.39C117.334 134.39 119.202 133.587 120.365 132.18C121.562 130.731 122.183 128.442 122.183 125.1V94.1398H134.543V123.98C134.543 131.269 133.242 136.793 129.949 140.483C126.632 144.201 121.494 145.84 114.363 145.84C107.232 145.84 102.094 144.201 98.7767 140.483C95.484 136.793 94.1829 131.269 94.1829 123.98V94.1398ZM95.1829 123.98C95.1829 138.4 100.363 144.84 114.363 144.84C128.363 144.84 133.543 138.4 133.543 123.98V95.1398H123.183V125.1C123.183 131.96 120.663 135.39 114.363 135.39C108.063 135.39 105.543 131.96 105.543 125.1V95.1398H95.1829V123.98ZM183.525 132.753L183.114 133.59C181.235 137.421 178.766 140.498 175.557 142.612C172.342 144.73 168.452 145.84 163.806 145.84C157.007 145.84 151.305 143.663 147.314 139.245C143.336 134.841 141.176 128.341 141.176 119.92C141.176 111.499 143.335 104.834 147.301 100.26C151.282 95.668 156.983 93.2998 163.806 93.2998C168.422 93.2998 172.295 94.2382 175.496 96.2536C178.698 98.2706 181.141 101.312 182.986 105.365L183.38 106.23L172.306 111.978L171.951 110.836C171.358 108.925 170.482 107.424 169.221 106.398C167.973 105.381 166.25 104.75 163.806 104.75C160.926 104.75 158.624 105.713 157.033 107.481C155.432 109.261 154.446 111.972 154.446 115.65V123.49C154.446 127.168 155.432 129.878 157.033 131.658C158.624 133.426 160.926 134.39 163.806 134.39C166.205 134.39 168.043 133.644 169.45 132.476C170.873 131.296 171.906 129.642 172.598 127.764L173.009 126.647L183.525 132.753ZM182.216 133.15C178.576 140.57 172.766 144.84 163.806 144.84C150.646 144.84 142.176 136.44 142.176 119.92C142.176 103.4 150.646 94.2998 163.806 94.2998C172.766 94.2998 178.506 97.9398 182.076 105.78L172.906 110.54C172.805 110.213 172.695 109.894 172.575 109.585C171.212 106.058 168.633 103.75 163.806 103.75C157.576 103.75 153.446 107.95 153.446 115.65V123.49C153.446 131.19 157.576 135.39 163.806 135.39C168.64 135.39 171.574 132.602 173.157 129.046C173.293 128.739 173.42 128.427 173.536 128.11L182.216 133.15ZM217.922 145V124.98H201.302V145H188.662V94.1398H201.302V113.6H217.922V94.1398H230.562V145H217.922ZM218.922 95.1398H229.562V144H218.922V123.98H200.302V144H189.662V95.1398H200.302V114.6H218.922V95.1398ZM86.5822 119.57C86.5822 136.16 78.0422 144.84 65.0922 144.84C52.1422 144.84 43.6022 136.16 43.6022 119.57C43.6022 102.98 52.1422 94.2998 65.0922 94.2998C78.0422 94.2998 86.5822 102.98 86.5822 119.57ZM54.8722 123.21C54.8722 130.98 58.7222 135.39 65.0922 135.39C71.4622 135.39 75.3122 130.98 75.3122 123.21V115.93C75.3122 108.16 71.4622 103.75 65.0922 103.75C58.7222 103.75 54.8722 108.16 54.8722 115.93V123.21Z" fill="black"/>
<path d="M39.9906 111.59V102.14H2.89062V111.59H16.1206V151H26.7606V111.59H39.9906Z" fill="white"/>
<path d="M65.0922 151.84C78.0422 151.84 86.5822 143.16 86.5822 126.57C86.5822 109.98 78.0422 101.3 65.0922 101.3C52.1422 101.3 43.6022 109.98 43.6022 126.57C43.6022 143.16 52.1422 151.84 65.0922 151.84ZM65.0922 142.39C58.7222 142.39 54.8722 137.98 54.8722 130.21V122.93C54.8722 115.16 58.7222 110.75 65.0922 110.75C71.4622 110.75 75.3122 115.16 75.3122 122.93V130.21C75.3122 137.98 71.4622 142.39 65.0922 142.39Z" fill="white"/>
<path d="M95.1829 102.14V130.98C95.1829 145.4 100.363 151.84 114.363 151.84C128.363 151.84 133.543 145.4 133.543 130.98V102.14H123.183V132.1C123.183 138.96 120.663 142.39 114.363 142.39C108.063 142.39 105.543 138.96 105.543 132.1V102.14H95.1829Z" fill="white"/>
<path d="M163.806 151.84C172.766 151.84 178.576 147.57 182.216 140.15L173.536 135.11C172.066 139.1 169.056 142.39 163.806 142.39C157.576 142.39 153.446 138.19 153.446 130.49V122.65C153.446 114.95 157.576 110.75 163.806 110.75C169.056 110.75 171.646 113.48 172.906 117.54L182.076 112.78C178.506 104.94 172.766 101.3 163.806 101.3C150.646 101.3 142.176 110.4 142.176 126.92C142.176 143.44 150.646 151.84 163.806 151.84Z" fill="white"/>
<path d="M218.922 151H229.562V102.14H218.922V121.6H200.302V102.14H189.662V151H200.302V130.98H218.922V151Z" fill="white"/>
<path fill-rule="evenodd" clip-rule="evenodd" d="M40.9906 112.59H27.7606V152H15.1206V112.59H1.89062V101.14H40.9906V112.59ZM2.89062 111.59V102.14H39.9906V111.59H26.7606V151H16.1206V111.59H2.89062ZM81.4425 146.089C77.4665 150.584 71.8008 152.84 65.0922 152.84C58.3836 152.84 52.7179 150.584 48.7419 146.089C44.7795 141.609 42.6022 135.027 42.6022 126.57C42.6022 118.112 44.7795 111.531 48.7419 107.051C52.7179 102.556 58.3836 100.3 65.0922 100.3C71.8008 100.3 77.4665 102.556 81.4425 107.051C85.4049 111.531 87.5822 118.112 87.5822 126.57C87.5822 135.027 85.4049 141.609 81.4425 146.089ZM58.3561 138.567C59.8961 140.383 62.1534 141.39 65.0922 141.39C68.031 141.39 70.2883 140.383 71.8283 138.567C73.3871 136.729 74.3122 133.942 74.3122 130.21V122.93C74.3122 119.198 73.3871 116.411 71.8283 114.573C70.2883 112.757 68.031 111.75 65.0922 111.75C62.1534 111.75 59.8961 112.757 58.3561 114.573C56.7973 116.411 55.8722 119.198 55.8722 122.93V130.21C55.8722 133.942 56.7973 136.729 58.3561 138.567ZM94.1829 101.14H106.543V132.1C106.543 135.442 107.163 137.731 108.361 139.18C109.524 140.587 111.392 141.39 114.363 141.39C117.334 141.39 119.202 140.587 120.365 139.18C121.562 137.731 122.183 135.442 122.183 132.1V101.14H134.543V130.98C134.543 138.269 133.242 143.793 129.949 147.483C126.632 151.201 121.494 152.84 114.363 152.84C107.232 152.84 102.094 151.201 98.7767 147.483C95.484 143.793 94.1829 138.269 94.1829 130.98V101.14ZM95.1829 130.98C95.1829 145.4 100.363 151.84 114.363 151.84C128.363 151.84 133.543 145.4 133.543 130.98V102.14H123.183V132.1C123.183 138.96 120.663 142.39 114.363 142.39C108.063 142.39 105.543 138.96 105.543 132.1V102.14H95.1829V130.98ZM183.525 139.753L183.114 140.59C181.235 144.421 178.766 147.498 175.557 149.612C172.342 151.73 168.452 152.84 163.806 152.84C157.007 152.84 151.305 150.663 147.314 146.245C143.336 141.841 141.176 135.341 141.176 126.92C141.176 118.499 143.335 111.834 147.301 107.26C151.282 102.668 156.983 100.3 163.806 100.3C168.422 100.3 172.295 101.238 175.496 103.254C178.698 105.271 181.141 108.312 182.986 112.365L183.38 113.23L172.306 118.978L171.951 117.836C171.358 115.925 170.482 114.424 169.221 113.398C167.973 112.381 166.25 111.75 163.806 111.75C160.926 111.75 158.624 112.713 157.033 114.481C155.432 116.261 154.446 118.972 154.446 122.65V130.49C154.446 134.168 155.432 136.878 157.033 138.658C158.624 140.426 160.926 141.39 163.806 141.39C166.205 141.39 168.043 140.644 169.45 139.476C170.873 138.296 171.906 136.642 172.598 134.764L173.009 133.647L183.525 139.753ZM182.216 140.15C178.576 147.57 172.766 151.84 163.806 151.84C150.646 151.84 142.176 143.44 142.176 126.92C142.176 110.4 150.646 101.3 163.806 101.3C172.766 101.3 178.506 104.94 182.076 112.78L172.906 117.54C172.805 117.213 172.695 116.894 172.575 116.585C171.212 113.058 168.633 110.75 163.806 110.75C157.576 110.75 153.446 114.95 153.446 122.65V130.49C153.446 138.19 157.576 142.39 163.806 142.39C168.64 142.39 171.574 139.602 173.157 136.046C173.293 135.739 173.42 135.427 173.536 135.11L182.216 140.15ZM217.922 152V131.98H201.302V152H188.662V101.14H201.302V120.6H217.922V101.14H230.562V152H217.922ZM218.922 102.14H229.562V151H218.922V130.98H200.302V151H189.662V102.14H200.302V121.6H218.922V102.14ZM86.5822 126.57C86.5822 143.16 78.0422 151.84 65.0922 151.84C52.1422 151.84 43.6022 143.16 43.6022 126.57C43.6022 109.98 52.1422 101.3 65.0922 101.3C78.0422 101.3 86.5822 109.98 86.5822 126.57ZM54.8722 130.21C54.8722 137.98 58.7222 142.39 65.0922 142.39C71.4622 142.39 75.3122 137.98 75.3122 130.21V122.93C75.3122 115.16 71.4622 110.75 65.0922 110.75C58.7222 110.75 54.8722 115.16 54.8722 122.93V130.21Z" fill="black"/>
</svg>
