<svg width="190" height="340" viewBox="0 0 190 340" fill="none" xmlns="http://www.w3.org/2000/svg">
<path fill-rule="evenodd" clip-rule="evenodd" d="M190 35H0V34H190V35Z" fill="black" fill-opacity="0.2"/>
<path fill-rule="evenodd" clip-rule="evenodd" d="M190 316H0V315H190V316Z" fill="black" fill-opacity="0.2"/>
<path d="M71.6874 16.1025C70.6194 16.5626 69.4439 17.8625 69.0727 19.4942C68.6028 21.5615 70.5583 22.4358 70.7187 22.1491C70.9075 21.8123 70.3683 21.6983 70.2572 20.6257C70.1138 19.2403 70.7399 17.6922 71.528 17.013C71.6745 16.8869 71.6675 17.0625 71.6675 17.3874L71.6363 24.2722C71.6363 25.745 71.5772 26.2102 71.471 26.6697C71.3633 27.1354 71.1904 27.4502 71.3215 27.5713C71.468 27.7069 72.0935 27.3843 72.4554 26.8646C72.8896 26.2412 73.0415 25.4926 73.0689 24.6795C73.1018 23.6994 73.1005 22.1443 73.1018 21.2571L73.0887 16.629C73.0821 16.2778 72.1348 15.9092 71.6878 16.1018L71.6874 16.1025ZM109.637 22.995C109.603 23.7607 109.438 24.3591 109.233 24.7813C108.838 25.5985 108.016 25.8523 107.667 24.6775C107.477 24.0371 107.468 22.9676 107.605 22.074C107.743 21.1636 108.132 20.476 108.776 20.538C109.41 20.5993 109.707 21.4402 109.637 22.995L109.637 22.995ZM98.941 27.7457C98.9324 29.018 98.7377 30.1334 98.3203 30.4581C97.7282 30.9175 96.9324 30.5729 97.0972 29.6445C97.243 28.823 97.9325 27.9841 98.9427 26.959L98.941 27.7464L98.941 27.7457ZM98.7792 22.9878C98.743 23.6851 98.5673 24.3858 98.3755 24.7816C97.9797 25.5989 97.1522 25.8544 96.8092 24.6779C96.5747 23.874 96.6309 22.8336 96.7469 22.178C96.8975 21.3275 97.2625 20.5384 97.9178 20.5384C98.555 20.5384 98.8691 21.2574 98.7793 22.9878L98.7792 22.9878ZM92.5832 22.9771C92.5443 23.7157 92.4043 24.3332 92.1795 24.7816C91.7727 25.5933 90.9681 25.8506 90.6132 24.6778C90.3574 23.8321 90.4444 22.679 90.5509 22.056C90.7089 21.1317 91.1043 20.4763 91.7218 20.5384C92.356 20.6022 92.6642 21.4405 92.5833 22.9773L92.5832 22.9771ZM120.978 23.8398C120.823 23.8398 120.753 24.0042 120.694 24.2808C120.491 25.2429 120.278 25.4608 120.002 25.4608C119.694 25.4608 119.418 24.9844 119.347 24.0308C119.291 23.281 119.3 21.9006 119.372 20.5275C119.386 20.2454 119.311 19.9663 118.575 19.6914C118.258 19.5732 117.798 19.3992 117.569 19.968C116.922 21.5751 116.669 22.8511 116.609 23.3693C116.606 23.3962 116.574 23.4016 116.568 23.339C116.53 22.9238 116.445 22.1694 116.435 20.5844C116.433 20.2751 116.369 20.0119 116.037 19.7964C115.822 19.6566 115.168 19.4092 114.933 19.7035C114.729 19.9442 114.492 20.5918 114.247 21.3594L113.909 22.4054L113.914 20.0834C113.915 19.8424 113.754 19.7622 113.706 19.7477C113.488 19.6826 113.058 19.5738 112.875 19.5738C112.65 19.5738 112.595 19.7032 112.595 19.8917L112.559 23.6407L112.56 23.857C112.435 24.5614 112.032 25.5177 111.593 25.5177C111.153 25.5177 110.947 25.118 110.947 23.2908C110.947 22.225 110.978 21.7615 110.993 20.9907L111.018 20.1283C111.015 19.8909 110.616 19.7714 110.43 19.7272C110.244 19.6826 110.082 19.6653 109.955 19.6727C109.776 19.6831 109.649 19.804 109.649 19.9702L109.65 20.2288C109.42 19.8559 109.049 19.5964 108.802 19.5212C108.137 19.3181 107.443 19.4982 106.92 20.2513C106.504 20.8498 106.253 21.5277 106.155 22.5017C106.083 23.2137 106.106 23.9358 106.234 24.5464C106.08 25.2354 105.792 25.5177 105.477 25.5177C105.02 25.5177 104.688 24.7501 104.727 23.4224C104.752 22.5491 104.922 21.9362 105.108 21.0497C105.187 20.6717 105.123 20.4738 104.961 20.2842C104.813 20.1103 104.498 20.0215 104.045 20.1308C103.722 20.2087 103.26 20.2925 102.838 20.3568C102.838 20.3568 102.863 20.2523 102.884 20.0678C102.994 19.1009 101.972 19.1792 101.646 19.4881C101.452 19.6725 101.319 19.89 101.269 20.281C101.189 20.9016 101.681 21.1943 101.681 21.1943C101.52 21.9538 101.124 22.9475 100.716 23.6653C100.497 24.05 100.329 24.335 100.113 24.638L100.111 24.3001L100.136 20.9909L100.162 20.1376C100.159 19.964 100.061 19.8985 99.8556 19.8155C99.6743 19.7421 99.4601 19.6913 99.2379 19.6736C98.9574 19.6511 98.7883 19.8041 98.7928 19.9851C98.7936 20.0193 98.7936 20.2291 98.7936 20.2291C98.5629 19.8561 98.1918 19.5967 97.945 19.5215C97.2801 19.3185 96.5862 19.4984 96.0628 20.2516C95.6469 20.8501 95.3745 21.69 95.298 22.4945C95.2255 23.2444 95.2394 23.8816 95.3374 24.4183C95.2316 24.9558 94.9277 25.5179 94.584 25.5179C94.1446 25.5179 93.8945 25.1182 93.8945 23.291C93.8945 22.2252 93.9256 21.7617 93.9409 20.9909L93.966 20.1285C93.9627 19.8911 93.5638 19.7716 93.3782 19.7273C93.184 19.6812 93.0156 19.6641 92.8875 19.6739C92.7176 19.6869 92.5981 19.8434 92.5981 19.96V20.229C92.3673 19.856 91.9963 19.5966 91.7494 19.5214C91.0845 19.3183 90.3945 19.5012 89.8672 20.2515C89.5234 20.7407 89.2451 21.2831 89.1025 22.4838C89.0611 22.8308 89.0428 23.1557 89.0451 23.4594C88.908 24.3218 88.3025 25.3158 87.8071 25.3158C87.5173 25.3158 87.2412 24.7375 87.2412 23.5051C87.2412 21.8634 87.34 19.5262 87.3567 19.3008L88.1037 19.2884C88.4158 19.2849 88.6986 19.2925 89.1143 19.2706C89.3229 19.2597 89.5237 18.4898 89.3086 18.3945C89.211 18.3513 88.5215 18.3136 88.2482 18.3077C88.0184 18.3023 87.3786 18.2536 87.3786 18.2536L87.4494 16.5384C87.4607 16.4018 87.2889 16.3315 87.1903 16.2888C86.9507 16.1846 86.7363 16.1347 86.4822 16.0808C86.1312 16.0064 85.9719 16.0792 85.9408 16.384C85.8947 16.8464 85.8696 18.201 85.8696 18.201C85.612 18.201 84.7321 18.1492 84.4745 18.1492C84.2351 18.1492 83.9767 19.2082 84.3077 19.2213L85.7921 19.2633L85.7733 22.5987C85.5311 23.8968 84.6782 24.5981 84.6782 24.5981C84.8614 23.7393 84.4872 23.0944 83.8133 22.5485C83.565 22.3473 83.0749 21.9665 82.5264 21.5492C82.5264 21.5492 82.844 21.2272 83.1263 20.5795C83.3259 20.1206 83.3345 19.5955 82.8447 19.4797C82.0352 19.2883 81.3679 19.8997 81.1688 20.5525C81.0145 21.0581 81.0968 21.4333 81.3989 21.8233C81.421 21.8517 81.4448 21.8809 81.4696 21.9101C81.2868 22.2723 81.0358 22.76 80.8233 23.1381C80.2332 24.1882 79.7874 25.0187 79.4507 25.0187C79.1814 25.0187 79.185 24.1755 79.185 23.386C79.185 22.7053 79.2338 21.6821 79.2729 20.6227C79.2858 20.2723 79.1154 20.0727 78.8298 19.8919C78.6565 19.782 78.2861 19.5661 78.0717 19.5661C77.7506 19.5661 76.8247 19.611 75.9497 22.2144C75.8394 22.5426 75.6227 23.1404 75.6227 23.1404L75.6414 20.0098C75.6414 19.9364 75.6034 19.8654 75.5163 19.8169C75.3689 19.7345 74.9757 19.5661 74.625 19.5661C74.4582 19.5661 74.3748 19.6459 74.3748 19.805L74.3443 24.703C74.3443 25.0751 74.3537 25.5099 74.3895 25.6991C74.4253 25.8883 74.4829 26.0439 74.5543 26.1358C74.6258 26.2278 74.7084 26.2977 74.8446 26.3266C74.9713 26.3535 75.6654 26.4452 75.7015 26.1724C75.7447 25.8455 75.7463 25.4917 76.1109 24.1729C76.6783 22.1196 77.418 21.1177 77.7658 20.7619C77.8266 20.6997 77.896 20.696 77.8927 20.7978L77.7905 23.3285C77.6962 25.886 78.1486 26.3601 78.795 26.3601C79.2895 26.3601 79.9867 25.8547 80.7333 24.5753L81.9765 22.4328L82.7112 23.1285C83.3014 23.7047 83.4952 24.2523 83.3666 24.7716C83.2683 25.1687 82.8979 25.5785 82.2388 25.1802C82.0467 25.0642 81.9647 24.9745 81.7715 24.8436C81.6677 24.7734 81.5093 24.7523 81.4142 24.826C81.1674 25.0173 81.0263 25.2608 80.9456 25.5622C80.8672 25.8555 81.1528 26.0104 81.4488 26.1454C81.7037 26.262 82.2515 26.3678 82.6008 26.3799C83.962 26.4273 85.0524 25.7038 85.8115 23.8393C85.9473 25.4496 86.5256 26.3608 87.5303 26.3608C88.2021 26.3608 88.8755 25.4677 89.1699 24.5892C89.2544 24.9472 89.3796 25.2587 89.5412 25.5221C90.3154 26.7837 91.8173 26.5121 92.5717 25.4408C92.8049 25.1098 92.8405 24.9908 92.8405 24.9908C92.9506 26.0024 93.7425 26.3559 94.1959 26.3559C94.7038 26.3559 95.2282 26.1089 95.5958 25.2578C95.6388 25.3502 95.6858 25.4384 95.7372 25.522C96.5114 26.7837 98.0132 26.512 98.7676 25.4407C98.7995 25.3957 98.8307 25.3501 98.8611 25.304L98.8832 25.9685L98.1887 26.6237C97.0259 27.7209 96.1418 28.5534 96.0768 29.5228C95.9933 30.759 96.9679 31.2183 97.7053 31.2784C98.4884 31.3424 99.159 30.8973 99.571 30.2748C99.9336 29.7268 100.171 28.5472 100.153 27.3822L100.126 25.6866C100.535 25.1984 100.995 24.5815 101.419 23.8593C101.881 23.0723 102.376 22.0154 102.63 21.1929C102.63 21.1929 103.06 21.1967 103.519 21.1658C103.666 21.1559 103.708 21.1868 103.681 21.2975C103.648 21.4312 103.101 23.6023 103.6 25.0487C103.942 26.0388 104.713 26.3575 105.17 26.3575C105.705 26.3575 106.216 25.942 106.491 25.3251C106.524 25.3938 106.558 25.4604 106.596 25.5219C107.37 26.7835 108.867 26.5103 109.626 25.4406C109.798 25.1992 109.895 24.9906 109.895 24.9906C110.058 26.0376 110.85 26.3611 111.303 26.3611C111.776 26.3611 112.224 26.1619 112.587 25.2768C112.603 25.6665 112.627 25.9851 112.664 26.0856C112.687 26.147 112.822 26.2241 112.919 26.2614C113.351 26.4262 113.792 26.3482 113.954 26.3143C114.067 26.2908 114.155 26.1977 114.167 25.9569C114.199 25.3251 114.179 24.2634 114.365 23.4744C114.678 22.1502 114.969 21.6367 115.108 21.3824C115.185 21.24 115.272 21.2164 115.276 21.3672C115.282 21.6724 115.297 22.5682 115.418 23.772C115.507 24.6573 115.626 25.1806 115.717 25.3462C115.978 25.8197 116.299 25.8422 116.561 25.8422C116.728 25.8422 117.076 25.7947 117.045 25.4934C117.03 25.3466 117.056 24.4387 117.365 23.1342C117.566 22.2823 117.901 21.5125 118.022 21.2311C118.067 21.1274 118.088 21.2092 118.087 21.225C118.062 21.8117 118.004 23.7306 118.237 24.7801C118.552 26.2019 119.463 26.361 119.78 26.361C120.458 26.361 121.013 25.8307 121.199 24.4352C121.244 24.0993 121.178 23.84 120.978 23.84" fill="black" fill-opacity="0.3"/>
</svg>
